<?xml version="1.0" standalone="no"?>
<!DOCTYPE svg PUBLIC "-//W3C//DTD SVG 1.1//EN" "http://www.w3.org/Graphics/SVG/1.1/DTD/svg11.dtd" >
<svg xmlns="http://www.w3.org/2000/svg">
<metadata>Generated by IcoMoon</metadata>
<defs>
<font id="icomoon" horiz-adv-x="1024">
<font-face units-per-em="1024" ascent="960" descent="-64" />
<missing-glyph horiz-adv-x="1024" />
<glyph unicode="&#x20;" horiz-adv-x="512" d="" />
<glyph unicode="&#xe900;" glyph-name="View_Report" d="M663.040 637.44c-21.212 0-38.4 17.188-38.4 38.4v130.56h-368.64c-14.141 0-25.6-11.459-25.6-25.6v-665.6c0-14.141 11.459-25.6 25.6-25.6h512c14.141 0 25.6 11.459 25.6 25.6v522.24h-130.56zM665.6 684.8c0-3.533 2.867-6.4 6.4-6.4h105.953l-112.353 112.348v-105.948zM587.156 389.386l27.351-40.392 6.072 4.157 115.84-171.31-65.572-44.344-115.789 171.366 5.53 3.773-27.305 40.294c-74.189-31.662-162.811-7.603-209.736 61.711-53.299 78.618-32.783 185.564 45.901 238.894 78.628 53.228 185.533 32.768 238.838-45.972 47.109-69.504 36.419-161.162-21.13-218.179zM369.101 445.558c-36.086 53.473-22.118 126.075 31.263 162.345 53.443 36.127 125.942 22.241 162.309-31.206 36.060-53.468 22.19-125.993-31.283-162.294-53.386-36.070-125.952-22.159-162.289 31.155z" />
<glyph unicode="&#xe901;" glyph-name="Star_Open" d="M512 631.27l49.229-151.511h159.293l-128.87-93.635 49.229-151.501-128.881 93.624-128.876-93.624 49.234 151.501-128.886 93.635h159.304l49.224 151.511zM512 788.833l-84.598-260.383h-273.777l221.496-160.932-84.613-260.378 221.491 160.927 221.491-160.932-84.598 260.378 221.496 160.932h-273.782l-84.608 260.388z" />
<glyph unicode="&#xe902;" glyph-name="Star_Filled" d="M648.888 367.519l221.496 160.932h-273.782l-84.603 260.383-84.598-260.383h-273.777l221.496-160.932-84.613-260.378 221.491 160.927 221.491-160.927z" />
<glyph unicode="&#xe903;" glyph-name="Sort_List" d="M332.8 499.2c-14.136 0-25.6 11.459-25.6 25.6 0 5.786 1.92 11.121 5.156 15.411l179.062 255.811c4.664 6.298 12.15 10.378 20.582 10.378s15.918-4.081 20.588-10.378l179.062-255.811c3.231-4.291 5.151-9.626 5.151-15.411 0-14.141-11.459-25.6-25.6-25.6h-358.4zM332.8 396.8c-14.136 0-25.6-11.459-25.6-25.6 0-5.786 1.92-11.121 5.156-15.411l179.062-255.811c4.664-6.298 12.15-10.378 20.582-10.378s15.918 4.081 20.588 10.378l179.062 255.811c3.236 4.291 5.156 9.626 5.156 15.411 0 14.141-11.459 25.6-25.6 25.6h-358.405z" />
<glyph unicode="&#xe904;" glyph-name="Settings" d="M844.052 334.674c6.292-4.721 8.238-13.988 4.367-20.685l-52.163-90.353c-3.886-6.794-12.943-9.667-20.106-6.605l-95.268 41.226c-25.615-22.815-55.788-40.591-89.124-51.594l-11.878-102.922c-0.937-7.788-8.003-14.162-15.744-14.141h-104.335c-7.798 0-14.833 6.39-15.744 14.141l-11.904 102.958c-33.321 11.003-63.488 28.759-89.103 51.615l-95.242-41.236c-7.224-3.108-16.251-0.159-20.116 6.554l-52.178 90.358c-3.881 6.723-1.905 16.041 4.383 20.705l83.041 61.681c-3.436 16.681-5.243 33.9-5.243 51.584 0 17.72 1.828 34.98 5.258 51.681l-83.021 61.66c-6.323 4.721-8.279 14.008-4.378 20.705l52.142 90.373c3.881 6.733 12.928 9.682 20.116 6.548l95.258-41.236c25.615 22.856 55.803 40.643 89.124 51.645l11.919 102.871c0.901 7.798 7.951 14.162 15.729 14.162h104.31c7.782 0 14.848-6.359 15.744-14.162l11.919-102.871c33.326-11.003 63.468-28.79 89.124-51.645l95.212 41.196c7.209 3.113 16.261 0.184 20.106-6.528l52.163-90.353c3.917-6.769 1.925-16.046-4.367-20.726l-83.021-61.681c3.415-16.66 5.238-33.94 5.238-51.64 0-17.684-1.838-34.924-5.238-51.645l83.021-61.64zM511.995 568.059c-66.314 0-120.044-53.734-120.044-120.064 0-66.273 53.734-120.049 120.044-120.049 66.314 0 120.054 53.775 120.054 120.049 0 66.33-53.74 120.064-120.054 120.064z" />
<glyph unicode="&#xe905;" glyph-name="Resume" d="M400 688.236c0 18.954 15.36 34.314 34.319 34.314 7.752 0 14.899-2.57 20.659-6.912l342.932-240.046c8.448-6.252 13.911-16.287 13.911-27.597 0-11.305-5.458-21.34-13.911-27.597l-342.932-240.046c-5.76-4.337-12.908-6.912-20.659-6.912-18.959 0-34.319 15.365-34.319 34.319v480.476zM311.69 172.897c14.141 0 25.6 11.459 25.6 25.6v499.005c0 14.141-11.459 25.6-25.6 25.6h-74.23c-14.141 0-25.6-11.459-25.6-25.6v-499.011c0-14.141 11.459-25.6 25.6-25.6h74.23z" />
<glyph unicode="&#xe906;" glyph-name="Report" d="M663.040 637.44c-21.212 0-38.4 17.193-38.4 38.4v130.56h-368.64c-14.136 0-25.6-11.464-25.6-25.6v-665.6c0-14.141 11.464-25.6 25.6-25.6h512c14.141 0 25.6 11.459 25.6 25.6v522.24h-130.56zM665.6 684.8c0-3.533 2.867-6.4 6.4-6.4h105.953l-112.353 112.353v-105.953zM364.8 499.2c-17.674 0-32 14.326-32 32s14.326 32 32 32h294.4c17.669 0 32-14.326 32-32s-14.331-32-32-32h-294.4zM364.8 345.6c-17.674 0-32 14.331-32 32s14.326 32 32 32h294.4c17.669 0 32-14.331 32-32s-14.331-32-32-32h-294.4zM364.8 192c-17.674 0-32 14.331-32 32s14.326 32 32 32h294.4c17.669 0 32-14.331 32-32s-14.331-32-32-32h-294.4z" />
<glyph unicode="&#xe907;" glyph-name="Property_Retail" d="M870.4 557.972v-33.172h-51.2v-435.2h-76.8v307.2h-153.6v-307.2h-384v435.2h-51.2v33.172l51.2 146.028v102.4h614.4v-102.4l51.2-146.028zM474.383 562.417c0-20.777 16.84-37.617 37.617-37.617s37.617 16.84 37.617 37.617v141.583h-75.233v-141.583zM590.372 562.417c0-20.777 16.84-37.617 37.617-37.617s37.612 16.84 37.612 37.617v141.583h-75.228v-141.583zM358.4 562.417c0-20.777 16.84-37.617 37.617-37.617s37.617 16.84 37.617 37.617v141.583h-75.233v-141.583zM256 562.417c0-20.777 16.84-37.617 37.617-37.617s37.617 16.84 37.617 37.617v141.583h-75.233v-141.583zM692.772 562.417c0-20.777 16.84-37.617 37.617-37.617s37.612 16.84 37.612 37.617v141.583h-75.228v-141.583zM512 396.8h-230.4v-204.8h230.4v204.8z" />
<glyph unicode="&#xe908;" glyph-name="Property_Residential" d="M819.036 493.911v-404.311h-614.236v404.311l307.2 197.489 307.036-197.489zM512 806.4l-358.4-230.518v-63.8l358.4 230.518 358.4-230.646v63.8l-358.4 230.646zM473.6 486.4h-128v-128h128v128zM678.4 486.4h-128v-128h128v128zM473.6 294.4h-128v-128h128v128zM678.4 294.4h-128v-128h128v128z" />
<glyph unicode="&#xe909;" glyph-name="Property_Office" d="M793.6 89.6h-204.8v115.2h-153.6v-115.2h-204.8v601.6h563.2v-601.6zM716.8 806.4h-409.6v-64h409.6v64zM716.8 345.6h-409.6v-76.8h409.6v76.8zM716.8 486.4h-409.6v-76.8h409.6v76.8zM716.8 627.2h-409.6v-76.8h409.6v76.8z" />
<glyph unicode="&#xe90a;" glyph-name="Property_Industrial" d="M870.4 89.6h-716.8v384l238.93 102.4v-102.4l238.935 102.4v-102.4l238.935 102.4v-486.4zM793.6 320h-153.6v-102.815h153.6v102.815zM588.8 320h-153.6v-102.815h153.6v102.815zM384 320h-153.6v-102.815h153.6v102.815zM307.2 806.4h-102.4l-19.958-255.411 138.609 59.402-16.251 196.009z" />
<glyph unicode="&#xe90b;" glyph-name="Property_Commercial" d="M793.6 89.6h-217.6v128h-128v-128h-217.6v716.8h563.2v-716.8zM563.2 729.6h-102.4v-107.52h102.4v107.52zM729.6 729.6h-102.4v-107.52h102.4v107.52zM563.2 570.88h-102.4v-107.52h102.4v107.52zM396.8 729.6h-102.4v-107.52h102.4v107.52zM396.8 570.88h-102.4v-107.52h102.4v107.52zM729.6 570.88h-102.4v-107.52h102.4v107.52zM563.2 412.16h-102.4v-107.52h102.4v107.52zM729.6 412.16h-102.4v-107.52h102.4v107.52zM396.8 412.16h-102.4v-107.52h102.4v107.52z" />
<glyph unicode="&#xe90c;" glyph-name="Print" d="M691.2 550.4h-358.4v256.056h358.4v-256.056zM691.2 217.6h-358.4v-128h358.4v128zM742.4 268.8v-76.8h102.4c14.141 0 25.6 11.459 25.6 25.6v358.4c0 14.136-11.459 25.6-25.6 25.6h-102.4v-102.4h-460.8v102.4h-102.4c-14.141 0-25.6-11.464-25.6-25.6v-358.4c0-14.141 11.459-25.6 25.6-25.6h102.4v76.8h460.8z" />
<glyph unicode="&#xe90d;" glyph-name="PinDrop" d="M512 806.339c-132.818 0-241.403-108.109-241.403-241.439 0-215.593 241.403-475.3 241.403-475.3s241.393 259.707 241.393 475.3c0 133.33-108.605 241.439-241.393 241.439zM665.236 622.669h-115.692l-35.763 110.019c70.533-0.717 130.012-46.577 151.455-110.019zM510.198 732.692l-35.743-110.019h-115.712c21.386 63.396 80.947 109.297 151.455 110.019zM350.188 571.028c0 16.788 2.534 33.029 7.327 48.271l93.696-68.065-35.722-109.942c-39.532 29.507-65.3 76.549-65.3 129.736zM418.422 439.127l93.578 67.983 93.542-68.024c-26.414-18.755-58.685-29.906-93.542-29.906-34.898 0-67.159 11.151-93.578 29.947zM608.451 441.293l-35.666 109.942 93.66 68.106c4.792-15.278 7.388-31.519 7.388-48.312 0-53.187-25.8-100.229-65.382-129.736z" />
<glyph unicode="&#xe90e;" glyph-name="Phone" d="M489.856 422.077c-34.463 70.047-53.023 150.436-35.507 158.674 20.669 9.713 41.851 17.224 47.58 19.354 6.026 2.243 9.313 4.557 6.374 12.964-4.040 11.699-68.762 177.592-70.938 183.368-2.826 7.532-5.576 11.709-13.788 9.129-58.348-17.997-161.623-64.404-131.246-193.608 18.509-77.164 47.468-163.333 87.281-244.152 39.629-80.814 90.143-156.411 139.873-218.214 83.738-103.009 183.578-49.649 233.513-14.484 6.999 5.002 5.402 9.708 1.152 16.532-3.261 5.263-94.981 157.855-101.76 168.187-4.91 7.485-8.709 6.354-14.152 2.98-5.202-3.333-24.166-15.529-44.406-25.861-17.3-8.842-69.576 54.958-103.977 125.133z" />
<glyph unicode="&#xe90f;" glyph-name="Module_Reporting" d="M844.8 755.2h-665.528c-14.141 0-25.6-11.464-25.6-25.6v-473.6c0-14.141 11.459-25.6 25.6-25.6h255.928l-4.5-64h-72.3v-25.6h307.2v25.6h-72.3l-4.5 64h256c14.141 0 25.6 11.459 25.6 25.6v473.6c0 14.136-11.459 25.6-25.6 25.6zM819.2 281.6h-614.4v422.4h614.4v-422.4zM693.494 531.917c-7.639 0-13.839 6.19-13.839 13.834v47.048h-132.828c-5.094 0-9.226-4.132-9.226-9.226v-241.546c0-5.1 4.132-9.231 9.226-9.231h184.489c5.094 0 9.226 4.132 9.226 9.231v189.891h-47.048zM694.415 548.982c0-1.275 1.029-2.304 2.304-2.304h38.185l-40.489 40.479v-38.175zM586.025 482.104c-6.369 0-11.53 5.161-11.53 11.53 0 6.359 5.161 11.53 11.53 11.53h106.086c6.369 0 11.53-5.171 11.53-11.53 0-6.369-5.161-11.53-11.53-11.53h-106.086zM586.025 426.762c-6.369 0-11.53 5.161-11.53 11.53 0 6.359 5.161 11.525 11.53 11.525h106.086c6.369 0 11.53-5.166 11.53-11.525 0-6.369-5.161-11.53-11.53-11.53h-106.086zM586.025 371.41c-6.369 0-11.53 5.161-11.53 11.53s5.161 11.53 11.53 11.53h106.086c6.369 0 11.53-5.161 11.53-11.53s-5.161-11.53-11.53-11.53h-106.086zM524.8 401.408v-38.61h-105.974c-5.094 0-9.226 4.132-9.226 9.231v241.546c0 5.094 4.132 9.226 9.226 9.226h164.854v-17.198h-36.854c-12.145 0-22.026-9.882-22.026-22.026v-48.41h-66.775c-6.369 0-11.53-5.171-11.53-11.53 0-6.369 5.161-11.53 11.53-11.53h66.775v-32.292h-66.775c-6.369 0-11.53-5.166-11.53-11.53 0-6.369 5.161-11.53 11.53-11.53h66.775v-32.287h-66.775c-6.369 0-11.53-5.161-11.53-11.53s5.161-11.53 11.53-11.53h66.775zM396.8 431.411v-38.61h-105.974c-5.094 0-9.226 4.132-9.226 9.231v241.541c0 5.094 4.132 9.226 9.226 9.226h164.854v-17.198h-36.854c-12.145 0-22.026-9.882-22.026-22.026v-48.41h-66.775c-6.369 0-11.53-5.171-11.53-11.53 0-6.369 5.161-11.53 11.53-11.53h66.775v-32.292h-66.775c-6.369 0-11.53-5.166-11.53-11.53 0-6.369 5.161-11.53 11.53-11.53h66.775v-32.287h-66.775c-6.369 0-11.53-5.161-11.53-11.525 0-6.369 5.161-11.53 11.53-11.53h66.775z" />
<glyph unicode="&#xe910;" glyph-name="Module_Dashboard" d="M160.599 140.8c-9.861 0-15.058 10.429-15.058 19.308 0 2.145 0.502 4.209 1.398 6.011l57.861 120.719c2.442 4.593 7.619 7.88 13.599 7.88h587.203c6.001 0 11.162-3.287 13.599-7.88l57.861-120.719c0.922-1.802 1.439-3.866 1.439-6.011 0-8.878-5.222-19.308-15.099-19.308h-702.802zM819.2 730.301c0 13.722-11.141 24.899-24.94 24.899h-564.562c-13.737 0-24.899-11.182-24.899-24.899v-385.398c0-13.742 11.162-24.899 24.899-24.899h564.562c13.798 0 24.94 11.162 24.94 24.899v385.398zM780.8 358.4h-537.6v358.4h537.6v-358.4zM230.318 275.63l-25.518-57.887h614.4l-25.498 57.887h-563.384zM861.901 149.443c5.361 0 8.202 3.804 8.499 6.543 0.159 1.178-0.481 2.831-2.299 2.145-1.398-0.64-3.139-0.901-5.038-0.901h-702.121c-1.9 0-3.62 0.261-5.038 0.901-1.802 0.686-2.458-0.963-2.299-2.145 0.317-2.739 3.139-6.543 8.499-6.543h699.796zM583.619 207.058h-143.217l-5.202-36.009h153.6l-5.181 36.009zM591.36 614.4h-43.52v-204.483h43.52v204.483zM739.84 588.559h-43.52v-178.883h43.52v178.883zM665.6 665.482h-43.52v-255.683h43.52v255.683zM502.922 480.707c5.852 13.798 9.078 28.974 9.078 44.902 0 49.838-31.652 92.273-75.945 108.329l-30.111-104.34 96.978-48.891zM421.289 638.172c-7.895 1.71-16.082 2.637-24.489 2.637-63.621 0-115.2-51.579-115.2-115.2 0-13.732 2.412-26.895 6.82-39.107l102.001 44.698 30.868 106.972zM294.61 472.443c19.215-36.854 57.748-62.034 102.19-62.034 42.22 0 79.114 22.723 99.169 56.596l-99.405 50.115-101.955-44.677z" />
<glyph unicode="&#xe911;" glyph-name="Module_Compliance" d="M768 611.84h-396.8v40.96h396.8v-40.96zM320 611.84h-64v40.96h64v-40.96zM768 518.825h-396.8v40.96h396.8v-40.96zM320 518.825h-64v40.96h64v-40.96zM768 425.815h-396.8v40.96h396.8v-40.96zM320 425.815h-64v40.96h64v-40.96zM320 332.8h-64v40.96h64v-40.96zM768 332.8h-396.8v40.96h396.8v-40.96zM844.8 755.2h-665.528c-14.141 0-25.6-11.464-25.6-25.6v-473.6c0-14.141 11.459-25.6 25.6-25.6h255.928l-4.5-64h-72.3v-25.6h307.2v25.6h-72.3l-4.5 64h256c14.141 0 25.6 11.459 25.6 25.6v473.6c0 14.136-11.459 25.6-25.6 25.6zM819.2 281.6h-614.4v422.4h614.4v-422.4z" />
<glyph unicode="&#xe912;" glyph-name="Module_Audit" d="M333.353 529.28l71.619 71.654c5.99 5.975 5.99 15.693 0 21.688-5.975 5.96-15.677 5.96-21.663 0l-60.79-60.851-18.534 18.545c-6.016 5.99-15.657 5.99-21.668 0-6.006-6.011-6.006-15.693 0-21.658l29.332-29.373c2.893-2.872 6.769-4.485 10.87-4.485 4.060 0 7.946 1.613 10.834 4.48zM333.353 401.28l71.619 71.654c5.99 5.975 5.99 15.693 0 21.688-5.975 5.96-15.677 5.96-21.663 0l-60.785-60.856-18.534 18.545c-6.016 5.99-15.657 5.99-21.668 0-6.006-6.011-6.006-15.693 0-21.658l29.332-29.373c2.893-2.867 6.774-4.48 10.875-4.48 4.050 0 7.936 1.613 10.824 4.48zM333.353 273.28l71.613 71.654c5.99 5.975 5.99 15.693 0 21.688-5.975 5.96-15.677 5.96-21.663 0l-60.785-60.856-18.534 18.545c-6.016 5.99-15.657 5.99-21.668 0-6.006-6.011-6.006-15.693 0-21.658l29.332-29.373c2.893-2.867 6.774-4.48 10.875-4.48 4.055 0 7.941 1.613 10.829 4.48zM844.8 140.8c14.141 0 25.6 11.459 25.6 25.6v563.2c0 14.136-11.459 25.6-25.6 25.6h-665.528c-14.141 0-25.6-11.464-25.6-25.6v-563.2c0-14.141 11.459-25.6 25.6-25.6h665.528zM806.4 204.8h-588.8v486.4h588.8v-486.4zM742.4 550.4h-281.6v51.2h281.6v-51.2zM742.4 422.4h-281.6v51.2h281.6v-51.2zM742.4 294.4h-281.6v51.2h281.6v-51.2z" />
<glyph unicode="&#xe913;" glyph-name="Menu_Hamburger" d="M230.4 652.8c-28.278 0-51.2 22.922-51.2 51.2s22.922 51.2 51.2 51.2h563.2c28.278 0 51.2-22.922 51.2-51.2s-22.922-51.2-51.2-51.2h-563.2zM793.6 396.8c28.278 0 51.2 22.922 51.2 51.2s-22.922 51.2-51.2 51.2h-563.2c-28.278 0-51.2-22.922-51.2-51.2s22.922-51.2 51.2-51.2h563.2zM793.6 140.8c28.278 0 51.2 22.922 51.2 51.2s-22.922 51.2-51.2 51.2h-563.2c-28.278 0-51.2-22.922-51.2-51.2s22.922-51.2 51.2-51.2h563.2z" />
<glyph unicode="&#xe914;" glyph-name="McDonalds_PlayPlace" d="M311.598 330.163h-69.012c-0.031 3.512-0.082 7.014-0.082 10.552 0.005 257.183 73.247 465.684 157.558 465.684 44.237 0 84.055-57.446 111.939-149.151 27.878 91.704 67.702 149.151 111.928 149.151 84.321 0 157.558-208.502 157.558-465.684 0-3.533-0.051-7.040-0.082-10.552h-69.012c-3.425 240.794-41.702 430.628-88.468 430.628-44.355 0-70.031-170.798-74.511-393.897h-74.839c-4.475 223.094-30.152 393.897-74.511 393.897-46.761 0.005-85.043-189.829-88.463-430.628zM862.705 246.661c11.295 13.588 9.436 33.772-4.157 45.066-13.594 11.3-33.766 9.441-45.066-4.157-69.719-83.891-182.426-133.97-301.481-133.97s-231.762 50.084-301.496 133.97c-11.295 13.594-31.468 15.442-45.061 4.157-13.594-11.3-15.452-31.473-4.152-45.066 81.751-98.345 212.859-157.061 350.71-157.061 137.861 0 268.964 58.716 350.705 157.061z" />
<glyph unicode="&#xe915;" glyph-name="McDonalds_Outside" d="M870.4 289.341l-25.4-153.6h-297.16v-46.141h-71.68v46.141h-297.165l-25.395 153.6h716.8zM311.598 330.163h-69.012c-0.031 3.512-0.082 7.014-0.082 10.552 0.005 257.183 73.247 465.684 157.558 465.684 44.237 0 84.055-57.446 111.939-149.151 27.878 91.704 67.702 149.151 111.928 149.151 84.321 0 157.558-208.502 157.558-465.684 0-3.533-0.051-7.040-0.082-10.552h-69.012c-3.425 240.794-41.702 430.628-88.468 430.628-44.355 0-70.031-170.798-74.511-393.897h-74.839c-4.475 223.094-30.152 393.897-74.511 393.897-46.761 0.005-85.043-189.829-88.463-430.628z" />
<glyph unicode="&#xe916;" glyph-name="McDonalds_Inside" d="M870.4 89.6h-716.8v716.8h716.8v-716.8zM793.6 729.6h-563.2v-563.2h563.2v563.2zM420.895 607.908c36.106 0 57.006-139.023 60.646-320.609h60.923c3.645 181.586 24.545 320.609 60.636 320.609 38.077 0 69.228-154.516 72.028-350.5h56.166c0.026 2.862 0.061 5.709 0.061 8.591 0 209.321-59.607 379.028-128.256 379.028-35.994 0-68.408-46.756-91.1-121.395-22.692 74.644-55.101 121.395-91.105 121.395-68.623 0-128.241-169.708-128.241-379.028 0-2.877 0.046-5.729 0.067-8.591h56.172c2.78 195.988 33.94 350.5 72.003 350.5z" />
<glyph unicode="&#xe917;" glyph-name="Map" d="M856.852 558.525c-8.438 5.294-18.98 5.975-28.042 1.705l-172.017-66.616c19.697 44.211 33.336 90.665 33.336 134.636 0 98.391-80.128 178.15-178.13 178.15s-178.14-79.759-178.14-178.15c0-29.87 6.282-60.892 16.481-91.571l-180.019-70.159c-10.23-4.833-16.722-15.063-16.722-26.307v-321.541c0-9.989 5.13-19.251 13.548-24.607 4.741-2.99 10.132-4.47 15.57-4.47 4.229 0 8.52 0.886 12.452 2.755l214.431 75.74 192.374-75.735c7.839-3.743 16.988-3.743 24.852 0l226.877 94.295c10.23 4.838 16.701 15.089 16.701 26.368v320.911c-0.005 9.979-5.146 19.246-13.553 24.596zM631.398 632.771c0-39.24-19.011-73.958-48.23-95.718l-26.332 81.121 69.12 50.248c3.533-11.279 5.443-23.24 5.443-35.651zM625.070 670.889h-85.35l-26.409 81.188c52.019-0.548 95.959-34.365 111.759-81.188zM581.028 535.429c-19.517-13.85-43.3-22.088-69.028-22.088-25.748 0-49.572 8.238-69.059 22.098l69.059 50.171 69.028-50.181zM510.669 752.082l-26.388-81.188h-85.361c15.78 46.787 59.72 80.614 111.749 81.188zM398.008 668.411l69.12-50.237-26.348-81.111c-29.179 21.76-48.189 56.468-48.189 95.708 0 12.411 1.889 24.371 5.417 35.64zM211.871 164.613v255.688l160.415 62.28c9.057-19.19 19.118-37.852 29.635-55.629v-195.528l-190.049-66.811zM417.28 231.583v170.404c46.341-72.366 94.72-124.462 94.72-124.462s48.384 52.101 94.72 124.472v-247.695l-189.44 77.281zM812.129 233.18l-190.049-78.874v256.922l190.049 74.209v-252.257z" />
<glyph unicode="&#xe918;" glyph-name="Search" d="M574.157 734.28c-96.399 96.282-252.38 96-348.518-0.282-96.2-96.44-95.98-252.477 0.379-348.6 84.879-84.741 216.1-94.5 311.859-29.757l49.398-49.3-6.779-6.799 209.541-209.582 80.2 80.22-209.582 209.521-7.398-7.501-49.48 49.362c65.459 95.898 55.578 227.758-29.619 312.719zM281.697 441.298c-65.3 65.418-65.398 171.361-0.159 236.902 65.362 65.382 171.141 65.562 236.841 0.261 65.28-65.418 65.521-171.218 0.138-236.841-65.3-65.28-171.203-65.439-236.82-0.323z" />
<glyph unicode="&#xe919;" glyph-name="LogOut" d="M460.8 384.010c-14.136 0-25.6 11.459-25.6 25.6v76.8c0 14.141 11.464 25.6 25.6 25.6h174.444v43.156c-0.005 6.554 2.493 13.112 7.496 18.109 9.994 9.994 26.204 9.989 36.198-0.005l107.167-107.162c5.002-4.997 7.496-11.556 7.496-18.109 0-6.548-2.493-13.097-7.491-18.089h-0.005l-107.167-107.162c-9.994-9.994-26.204-9.999-36.198-0.005-5.002 5.002-7.501 11.556-7.496 18.109v43.156h-174.444zM320 723.2c0 3.533 2.867 6.4 6.4 6.4h288c21.212 0 38.4 17.188 38.4 38.4s-17.188 38.4-38.4 38.4h-358.4c-14.141 0-25.6-11.459-25.6-25.6v-665.6c0-14.141 11.459-25.6 25.6-25.6h358.4c21.212 0 38.4 17.188 38.4 38.4s-17.188 38.4-38.4 38.4h-288c-3.533 0-6.4 2.867-6.4 6.4v550.4z" />
<glyph unicode="&#xe91a;" glyph-name="LogIn" d="M256 384.010c-14.136 0-25.6 11.459-25.6 25.6v76.8c0 14.141 11.464 25.6 25.6 25.6h174.444v43.156c-0.005 6.554 2.493 13.112 7.496 18.109 9.994 9.994 26.204 9.989 36.198-0.005l107.167-107.162c5.002-4.997 7.496-11.556 7.496-18.109 0-6.548-2.493-13.097-7.491-18.089h-0.005l-107.167-107.162c-9.994-9.994-26.204-9.999-36.198-0.005-5.002 5.002-7.501 11.556-7.496 18.109v43.156h-174.444zM704 172.8c0-3.533-2.867-6.4-6.4-6.4h-288c-21.212 0-38.4-17.188-38.4-38.4s17.188-38.4 38.4-38.4h358.4c14.141 0 25.6 11.459 25.6 25.6v665.6c0 14.141-11.459 25.6-25.6 25.6h-358.4c-21.212 0-38.4-17.188-38.4-38.4s17.188-38.4 38.4-38.4h288c3.533 0 6.4-2.867 6.4-6.4v-550.4z" />
<glyph unicode="&#xe91b;" glyph-name="List_Child" d="M864.302 255.386l-182.482 136.822c-2.519 1.93-5.652 3.077-9.108 3.077-8.392 0-15.16-6.825-15.16-15.237v-98.447h-427.151v506.568c0 10.056-8.202 18.232-18.304 18.232h-40.264c-10.076 0-18.232-8.177-18.232-18.232v-565.115c0-10.132 8.156-18.253 18.232-18.253h485.719v-98.499c0-8.417 6.769-15.217 15.16-15.217 3.461 0 6.589 1.126 9.108 3.052l182.482 136.791c3.732 2.816 6.098 7.245 6.098 12.273 0 4.972-2.371 9.452-6.098 12.186z" />
<glyph unicode="&#xe91c;" glyph-name="List_Grandchild" d="M761.948 357.791l-182.451 136.847c-2.56 1.925-5.729 3.072-9.17 3.072-8.34 0-15.181-6.825-15.181-15.237v-98.473h-119.946v301.742c0 10.102-8.212 18.258-18.278 18.258h-40.284c-10.081 0-18.237-8.156-18.237-18.258v-360.253c0-10.132 8.156-18.284 18.237-18.284h178.514v-98.499c0-8.392 6.84-15.212 15.181-15.212 3.441 0 6.61 1.121 9.17 3.021l182.451 136.822c3.722 2.79 6.118 7.214 6.118 12.268 0 4.997-2.401 9.452-6.124 12.186z" />
<glyph unicode="&#xe91d;" glyph-name="Info_Circle" d="M870.4 447.918c0-197.939-160.461-358.4-358.4-358.4s-358.4 160.461-358.4 358.4 160.461 358.4 358.4 358.4 358.4-160.456 358.4-358.4zM409.6 550.4v-51.2h51.2v-256h-51.2v-51.2h204.8v51.2h-51.2v307.2h-153.6zM512 716.8c-32.21 0-58.327-26.117-58.327-58.332s26.117-58.322 58.327-58.322c32.22 0 58.327 26.112 58.327 58.327s-26.107 58.327-58.327 58.327z" />
<glyph unicode="&#xe91e;" glyph-name="Home" d="M819.2 89.6h-204.8v307.2h-204.8v-307.2h-204.8v345.6l307.2 230.4 307.2-230.4v-345.6zM512 806.4l-358.4-268.8v-76.8l358.4 268.8 358.4-268.8v76.8l-358.4 268.8z" />
<glyph unicode="&#xe91f;" glyph-name="GPS" d="M870.4 473.6h-78.029c-11.617 135.608-119.322 243.732-254.771 255.949v76.851h-51.2v-76.851c-135.439-12.216-243.149-120.34-254.761-255.949h-78.039v-51.2h78.234c12.739-134.42 119.982-241.244 254.566-253.389v-79.411h51.2v79.411c134.595 12.14 241.833 118.968 254.577 253.389h78.223v51.2zM726.589 473.6h-131.671c-8.125 27.75-29.747 49.736-57.318 58.276v131.825c99.241-11.725 177.843-90.685 188.989-190.1zM486.4 663.7v-131.83c-27.576-8.535-49.193-30.52-57.318-58.271h-131.661c11.146 99.415 89.743 178.376 188.979 190.1zM297.743 422.4h132.127c8.678-26.537 29.809-47.437 56.53-55.706v-131.84c-98.376 11.633-176.451 89.339-188.657 187.546zM537.6 234.854v131.84c26.721 8.269 47.852 29.169 56.53 55.706h132.137c-12.201-98.207-90.281-175.918-188.667-187.546z" />
<glyph unicode="&#xe920;" glyph-name="Email" d="M832 704h-640c-21.212 0-38.4-17.188-38.4-38.4v-435.2c0-21.212 17.188-38.4 38.4-38.4h640c21.212 0 38.4 17.188 38.4 38.4v435.2c0 21.212-17.188 38.4-38.4 38.4zM760.945 640l-248.945-207.35-248.929 207.35h497.874zM217.6 256v331.372l261.811-218.081c18.012-15.002 47.191-15.002 65.198 0l261.791 218.056v-331.346h-588.8z" />
<glyph unicode="&#xe921;" glyph-name="Edit" d="M183.731 225.818l106.481-106.358-136.243-29.86 29.763 136.218zM841.027 587.638l-427.172-427.658-73.216-15.887-132.291 132.157 15.99 73.405 427.264 427.51c38.195 38.446 100.419 38.446 138.977 0l50.524-50.468c38.246-38.405 38.246-100.613-0.077-139.059zM736.015 728.586c-16.742 16.517-43.807 16.517-60.483 0l-381.102-381.655c-16.922-16.681-16.922-43.971 0-60.59 16.732-16.691 43.796-16.691 60.477 0l381.107 381.778c16.737 16.63 16.737 43.863 0 60.467z" />
<glyph unicode="&#xe922;" glyph-name="Comment" d="M383.708 354.258l61.46-61.399-78.618-17.239 17.157 78.638zM802.888 602.629l-286.382-286.392-42.24-9.18-76.319 76.262 9.221 42.368 286.418 286.341c22.077 22.18 57.979 22.18 80.2 0l29.158-29.138c22.067-22.18 22.067-58.081-0.056-80.261zM742.308 683.991c-9.641 9.539-25.262 9.539-34.918-0.041l-259.799-259.82c-9.718-9.631-9.718-25.39 0-34.929 9.641-9.702 25.262-9.702 34.898 0l259.82 259.891c9.661 9.595 9.661 25.277 0 34.898zM767.939 396.8l-76.739-75.94v-154.46h-409.6v563.2h256l76.8 76.8h-371.2c-21.212 0-38.4-17.188-38.4-38.4v-640c0-21.212 17.188-38.4 38.4-38.4h486.4c21.212 0 38.4 17.188 38.4 38.4l-0.061 3.41v265.39z" />
<glyph unicode="&#xe923;" glyph-name="Comment_Bubble" d="M793.6 729.6v-358.4h-354.074l-29.926-74.808-29.926 74.808h-149.274v358.4h563.2zM793.6 806.4h-563.2c-42.414 0-76.8-34.386-76.8-76.8v-358.4c0-42.414 34.386-76.8 76.8-76.8h97.28l81.92-204.8 81.92 204.8h302.080c42.414 0 76.8 34.386 76.8 76.8v358.4c0 42.414-34.386 76.8-76.8 76.8v0z" />
<glyph unicode="&#xe924;" glyph-name="Camera" d="M732.477 397.338c0-107.658-87.229-194.99-194.939-194.99-107.628 0-194.877 87.332-194.877 194.99 0 107.648 87.25 194.872 194.877 194.872 107.709 0 194.939-87.219 194.939-194.872zM659.231 397.338c0-67.19-54.461-121.682-121.672-121.682-67.18 0-121.595 54.492-121.595 121.682 0 67.154 54.415 121.569 121.595 121.569 67.21 0.005 121.672-54.41 121.672-121.569zM816.471 677.412h-137.923l-6.052 23.828c-7.639 29.757-37.888 53.96-67.738 53.96h-138.732c-29.778 0-60.124-24.207-67.717-53.96l-6.103-23.828h-55.619c0 20.311-16.481 36.746-36.741 36.746h-39.25c-20.291 0-36.731-16.435-36.731-36.746h-16.312c-29.824 0-53.955-24.146-53.955-53.944v-428.672c0-29.824 24.131-53.996 53.96-53.996h608.911c29.798 0 53.929 24.172 53.929 54.001v428.667c0 29.798-24.131 53.944-53.929 53.944z" />
<glyph unicode="&#xe925;" glyph-name="Calendar" d="M396.8 670.72c0-21.207-17.188-38.4-38.4-38.4s-38.4 17.193-38.4 38.4v97.28c0 21.207 17.188 38.4 38.4 38.4s38.4-17.193 38.4-38.4v-97.28zM704 768c0 21.207-17.188 38.4-38.4 38.4s-38.4-17.193-38.4-38.4v-97.28c0-21.207 17.188-38.4 38.4-38.4s38.4 17.193 38.4 38.4v97.28zM870.4 652.8v-512c0-28.273-22.927-51.2-51.2-51.2h-614.4c-28.278 0-51.2 22.927-51.2 51.2v512c0 28.278 22.922 51.2 51.2 51.2h84.48v-33.28c0-38.113 31.012-69.12 69.12-69.12s69.12 31.007 69.12 69.12v33.28h168.96v-33.28c0-38.113 31.007-69.12 69.12-69.12s69.12 31.007 69.12 69.12v33.28h84.48c28.273 0 51.2-22.922 51.2-51.2zM819.2 550.4h-614.4v-409.6h614.4v409.6zM569.6 492.8h-115.2v-115.2h115.2v115.2zM748.8 492.8h-115.2v-115.2h115.2v115.2zM390.4 492.8h-115.2v-115.2h115.2v115.2zM748.8 313.6h-115.2v-115.2h115.2v115.2zM390.4 313.6h-115.2v-115.2h115.2v115.2zM569.6 313.6h-115.2v-115.2h115.2v115.2z" />
<glyph unicode="&#xe926;" glyph-name="Attachment" d="M663.040 637.44c-21.212 0-38.4 17.188-38.4 38.4v130.56h-368.64c-14.141 0-25.6-11.459-25.6-25.6v-665.6c0-14.141 11.459-25.6 25.6-25.6h512c14.141 0 25.6 11.459 25.6 25.6v522.24h-130.56zM665.6 684.8c0-3.533 2.867-6.4 6.4-6.4h105.953l-112.353 112.348v-105.948zM512 166.4c-93.788 0-170.004 76.268-170.004 169.994v268.355c0 68.818 56.008 124.851 124.831 124.851 68.864 0 124.877-56.033 124.877-124.851v-261.74c0-44.457-36.209-80.625-80.645-80.625-44.457 0-80.625 36.168-80.625 80.625v210.166c0 13.112 10.634 23.767 23.741 23.767 13.097 0 23.726-10.655 23.726-23.767v-210.166c0-18.273 14.879-33.157 33.162-33.157 18.294 0 33.157 14.879 33.157 33.157v261.74c0 42.685-34.693 77.379-77.384 77.379-42.639 0-77.384-34.693-77.384-77.379v-268.355c0-67.553 54.973-122.532 122.563-122.532 67.548 0 122.501 54.973 122.501 122.532v199.393c0 13.112 10.68 23.747 23.772 23.747 13.112 0 23.752-10.634 23.752-23.747v-199.393c-0.020-93.727-76.329-169.994-170.040-169.994z" />
<glyph unicode="&#xe927;" glyph-name="Attachment_PaperClip" d="M512 89.6c-119.373 0-216.387 97.070-216.387 216.33v341.56c0 87.603 71.296 158.884 158.904 158.884 87.665 0 158.915-71.281 158.915-158.884v-333.148c0-56.571-46.090-102.61-102.636-102.61-56.571 0-102.61 46.039-102.61 102.61v267.494c0 16.701 13.517 30.275 30.208 30.275 16.676 0 30.188-13.573 30.188-30.275v-267.494c0-23.224 18.949-42.132 42.214-42.132 23.25 0 42.209 18.903 42.209 42.132v333.148c0 54.318-44.165 98.483-98.488 98.483-54.303 0-98.493-44.165-98.493-98.483v-341.56c0-86.001 69.934-155.935 155.976-155.935 86.001 0 155.904 69.934 155.904 155.935v253.814c0 16.655 13.568 30.208 30.28 30.208 16.66 0 30.182-13.553 30.182-30.208v-253.814c0-119.26-97.126-216.33-216.366-216.33z" />
<glyph unicode="&#xe928;" glyph-name="Arrow_Up" d="M742.4 448h-102.4v-332.8c0-14.141-11.459-25.6-25.6-25.6h-204.8c-14.141 0-25.6 11.459-25.6 25.6v332.8h-102.4c-14.136 0-25.6 11.459-25.6 25.6 0 5.786 1.92 11.121 5.156 15.411l230.262 307.011c4.664 6.298 12.15 10.378 20.582 10.378s15.918-4.081 20.588-10.378l230.262-307.011c3.231-4.291 5.151-9.626 5.151-15.411 0-14.141-11.459-25.6-25.6-25.6z" />
<glyph unicode="&#xe929;" glyph-name="Arrow_Right" d="M512 217.6v102.4h-332.8c-14.141 0-25.6 11.459-25.6 25.6v204.8c0 14.141 11.459 25.6 25.6 25.6h332.8v102.4c0 14.141 11.459 25.6 25.6 25.6 5.786 0 11.121-1.92 15.411-5.156l307.011-230.262c6.298-4.664 10.378-12.15 10.378-20.582s-4.081-15.918-10.378-20.588l-307.011-230.262c-4.291-3.236-9.626-5.156-15.411-5.156-14.141 0.005-25.6 11.464-25.6 25.605z" />
<glyph unicode="&#xe92a;" glyph-name="Arrow_Left" d="M512 217.6v102.4h332.8c14.141 0 25.6 11.459 25.6 25.6v204.8c0 14.141-11.459 25.6-25.6 25.6h-332.8v102.4c0 14.141-11.459 25.6-25.6 25.6-5.786 0-11.121-1.92-15.411-5.156l-307.011-230.257c-6.298-4.669-10.378-12.155-10.378-20.588s4.081-15.918 10.378-20.588l307.011-230.262c4.291-3.231 9.626-5.151 15.411-5.151 14.141 0 25.6 11.459 25.6 25.6z" />
<glyph unicode="&#xe92b;" glyph-name="Arrow_Down" d="M742.4 448h-102.4v332.8c0 14.141-11.459 25.6-25.6 25.6h-204.8c-14.141 0-25.6-11.459-25.6-25.6v-332.8h-102.4c-14.136 0-25.6-11.459-25.6-25.6 0-5.786 1.92-11.121 5.156-15.411l230.262-307.011c4.664-6.298 12.15-10.378 20.582-10.378s15.918 4.081 20.588 10.378l230.262 307.011c3.236 4.291 5.156 9.626 5.156 15.411-0.005 14.141-11.464 25.6-25.605 25.6z" />
<glyph unicode="&#xe92c;" glyph-name="Arrow_Circle_Up" d="M512 89.518c-197.939 0-358.4 160.461-358.4 358.4s160.461 358.4 358.4 358.4 358.4-160.461 358.4-358.4-160.461-358.4-358.4-358.4zM694.543 466.529c0 4.127-1.372 7.926-3.676 10.988l-164.188 218.921c-3.328 4.49-8.663 7.404-14.679 7.404s-11.351-2.913-14.684-7.404l-164.193-218.921c-2.304-3.062-3.676-6.861-3.676-10.988 0-10.092 8.177-18.253 18.253-18.253h61.901v-212.582c0-10.086 8.177-18.253 18.253-18.253h168.289c10.092 0 18.253 8.172 18.253 18.253v212.582h61.891c10.092 0 18.258 8.161 18.258 18.253z" />
<glyph unicode="&#xe92d;" glyph-name="Arrow_Circle_Right" d="M153.6 447.918c0 197.939 160.461 358.4 358.4 358.4s358.4-160.461 358.4-358.4-160.461-358.4-358.4-358.4-358.4 160.461-358.4 358.4zM530.611 265.375c4.127 0 7.926 1.372 10.988 3.676l218.921 164.188c4.49 3.328 7.404 8.663 7.404 14.679s-2.913 11.351-7.404 14.684l-218.926 164.193c-3.062 2.304-6.861 3.676-10.988 3.676-10.092 0-18.253-8.177-18.253-18.253v-61.896h-212.577c-10.086 0-18.253-8.177-18.253-18.253v-168.289c0-10.092 8.172-18.253 18.253-18.253h212.582v-61.891c-0.005-10.092 8.161-18.263 18.253-18.263z" />
<glyph unicode="&#xe92e;" glyph-name="Arrow_Circle_Left" d="M870.4 447.918c0-197.939-160.461-358.4-358.4-358.4s-358.4 160.461-358.4 358.4 160.461 358.4 358.4 358.4 358.4-160.456 358.4-358.4zM493.389 630.467c-4.127 0-7.926-1.372-10.988-3.676l-218.916-164.188c-4.49-3.328-7.404-8.663-7.404-14.679s2.913-11.351 7.404-14.684l218.921-164.188c3.062-2.304 6.861-3.676 10.988-3.676 10.092 0 18.253 8.177 18.253 18.253v61.896h212.582c10.086 0 18.253 8.177 18.253 18.253v168.289c0 10.092-8.172 18.253-18.253 18.253h-212.582v61.891c0 10.086-8.166 18.258-18.258 18.258z" />
<glyph unicode="&#xe92f;" glyph-name="Arrow_Circle_Down" d="M870.4 447.918c0-197.939-160.461-358.4-358.4-358.4s-358.4 160.461-358.4 358.4 160.461 358.4 358.4 358.4 358.4-160.456 358.4-358.4zM676.291 447.565h-61.891v212.582c0 10.086-8.166 18.253-18.253 18.253h-168.294c-10.076 0-18.253-8.172-18.253-18.253v-212.582h-61.896c-10.081 0-18.253-8.166-18.253-18.253 0-4.127 1.372-7.926 3.676-10.988l164.188-218.921c3.333-4.49 8.668-7.404 14.684-7.404s11.351 2.913 14.679 7.404l164.188 218.921c2.304 3.062 3.676 6.861 3.676 10.988 0 10.086-8.166 18.253-18.253 18.253z" />
<glyph unicode="&#xe930;" glyph-name="Alert_Triangle" d="M870.4 447.918c0-197.939-160.461-358.4-358.4-358.4s-358.4 160.461-358.4 358.4 160.461 358.4 358.4 358.4 358.4-160.456 358.4-358.4zM691.251 281.349c30.372 0 54.999 24.632 54.999 54.994 0 9.267-2.309 18.002-6.385 25.667l-180.838 314.47c-9.656 15.892-27.075 26.511-47.027 26.511-19.927 0-37.366-10.614-47.017-26.511l-180.838-314.47c-4.076-7.665-6.395-16.399-6.395-25.667 0-30.367 24.637-54.994 55.004-54.994h358.497zM512.020 410.414c-24.023 0-43.489-19.482-43.489-43.453 0-24.003 19.466-43.464 43.489-43.464 23.982 0 43.453 19.466 43.453 43.464 0 23.972-19.471 43.453-43.453 43.453zM523.996 439.916h-23.946l-32.369 139.812c-0.302 2.089-0.497 4.188-0.497 6.359 0 24.755 20.081 44.815 44.836 44.815s44.82-20.060 44.82-44.815c0-2.171-0.2-4.27-0.507-6.359l-32.338-139.812z" />
<glyph unicode="&#xe931;" glyph-name="Alert_Exclamation" d="M870.4 447.918c0-197.939-160.461-358.4-358.4-358.4s-358.4 160.461-358.4 358.4 160.461 358.4 358.4 358.4 358.4-160.456 358.4-358.4zM512 325.745c-43.945 0-79.734-35.517-79.734-79.944 0-43.904 35.789-79.401 79.734-79.401 43.853 0 79.37 35.497 79.37 79.401 0 44.431-35.517 79.944-79.37 79.944zM592.968 635.756c0.558 3.876 0.932 7.767 0.932 11.786 0 45.302-36.603 82.022-81.9 82.022s-82.222-36.721-82.222-82.022c0-4.019 0.353-7.91 0.916-11.786l59.412-255.913h44.088l58.772 255.913z" />
<glyph unicode="&#xe932;" glyph-name="Unacceptable" d="M870.4 447.918c0-197.939-160.461-358.4-358.4-358.4s-358.4 160.461-358.4 358.4 160.461 358.4 358.4 358.4 358.4-160.456 358.4-358.4zM720.174 294.129l-153.866 153.871 153.866 153.866-54.303 54.303-153.871-153.871-153.866 153.871-54.303-54.303 153.871-153.866-153.871-153.871 54.303-54.303 153.866 153.866 153.871-153.866 54.303 54.303z" />
<glyph unicode="&#xe933;" glyph-name="Acceptable" d="M870.4 447.918c0-197.939-160.461-358.4-358.4-358.4s-358.4 160.461-358.4 358.4 160.461 358.4 358.4 358.4 358.4-160.456 358.4-358.4zM698.522 617.774l-265.231-265.231-110.346 110.351-54.303-54.308 164.654-164.649 319.529 319.529-54.303 54.308z" />
<glyph unicode="&#xe934;" glyph-name="NotApplicable_Line" d="M870.4 447.918c0-197.939-160.461-358.4-358.4-358.4s-358.4 160.461-358.4 358.4 160.461 358.4 358.4 358.4 358.4-160.456 358.4-358.4zM768 486.4l-512-0.005v-76.795h512v76.8z" />
<glyph unicode="&#xe935;" glyph-name="NotApplicable_Circle" d="M870.4 447.918c0-197.939-160.461-358.4-358.4-358.4s-358.4 160.461-358.4 358.4 160.461 358.4 358.4 358.4 358.4-160.456 358.4-358.4zM512 704.041c-141.45 0-256.113-114.668-256.113-256.118 0-141.445 114.668-256.108 256.113-256.108s256.118 114.668 256.118 256.108c0 141.445-114.668 256.118-256.118 256.118zM512 628.598c35.973 0 69.458-10.557 97.618-28.682l-249.615-249.615c-18.125 28.16-28.677 61.645-28.677 97.613 0 99.794 80.891 180.685 180.675 180.685zM512 267.249c-36.014 0-69.535 10.578-97.71 28.733l249.646 249.646c18.161-28.175 28.739-61.696 28.739-97.71 0.005-99.779-80.896-180.669-180.675-180.669z" />
<glyph unicode="&#xe936;" glyph-name="NotApplicable_Letters" d="M870.4 447.918c0-197.939-160.461-358.4-358.4-358.4s-358.4 160.461-358.4 358.4 160.461 358.4 358.4 358.4 358.4-160.456 358.4-358.4zM256 345.6h41.165v160.348h0.614l82.017-160.348h52.531v214.42h-41.165v-160.353h-0.614l-81.715 160.353h-52.833v-214.42zM465.705 327.506h31.949l84.721 250.604h-31.944l-84.726-250.604zM567.47 345.6h44.539l18.739 49.152h86.932l18.432-49.152h47.616l-84.168 214.42h-48.532l-83.558-214.42zM674.678 517.012h-0.614l-31.027-88.468h62.664l-31.022 88.468z" />
<glyph unicode="&#xe937;" glyph-name="BurgerBeast_Burger" d="M230.999 588.16c-6.748 0-12.232 5.274-12.232 11.786 0.005 114.022 131.302 206.454 293.233 206.454 161.951 0 293.238-92.431 293.238-206.454 0-6.508-5.489-11.786-12.242-11.786h-561.997zM805.238 388.342c0 6.518-5.489 11.802-12.242 11.802h-562.007c-6.758 0-12.221-5.279-12.221-11.802v-35.553c0-6.487 5.458-11.776 12.221-11.776h562.012c6.748 0 12.242 5.289 12.242 11.776v35.553zM774.298 89.6c14.259 0 26.67 11.131 27.73 24.852l3.18 26.762c0.502 6.508-4.582 11.761-11.331 11.761h-563.779c-6.748 0-11.822-5.253-11.32-11.761l3.18-26.762c1.070-13.722 13.471-24.852 27.73-24.852h524.611zM368.922 745.19c-13.179-2.657-22.231-12.39-20.188-21.74 2.028-9.37 14.362-14.797 27.54-12.15 13.179 2.673 22.231 12.401 20.198 21.75-2.043 9.37-14.382 14.787-27.551 12.14zM331.95 685.855c-10.87-2.196-18.529-9.385-17.070-16.072 1.449-6.682 11.448-10.332 22.328-8.125 10.89 2.196 18.54 9.385 17.091 16.072s-11.448 10.312-22.349 8.125zM395.822 679.808c-6.292-1.26-10.829-5.012-10.102-8.346 0.732-3.338 6.431-5.023 12.728-3.743 6.308 1.26 10.829 5.007 10.102 8.335-0.732 3.328-6.41 5.012-12.728 3.753zM777.078 552.095h-9.682c-6.098-6.615-99.932-107.034-172.032-107.034 0 0-49.29 81.418-178.888 107.034h-169.574c-25.498 0-46.172-26.045-46.172-58.184 0-32.118 20.669-58.179 46.172-58.179h530.181c25.492 0 46.162 26.061 46.162 58.179-0.005 32.138-20.675 58.184-46.167 58.184zM777.078 304.937h-169.539c-129.613-25.615-178.908-107.023-178.908-107.023-72.1 0-165.929 100.408-172.032 107.023h-9.702c-25.498 0-46.172-26.045-46.172-58.184 0-32.118 20.669-58.168 46.172-58.168h530.181c25.492 0 46.162 26.051 46.162 58.168 0 32.138-20.669 58.184-46.162 58.184z" />
<glyph unicode="&#xe938;" glyph-name="Arrowhead_Down" d="M752.236 652.8c18.954 0 34.314-15.36 34.314-34.319 0-7.752-2.57-14.899-6.912-20.659l-240.046-342.932c-6.252-8.448-16.287-13.911-27.597-13.911-11.305 0-21.34 5.458-27.597 13.911l-240.036 342.932c-4.337 5.76-6.912 12.908-6.912 20.659 0 18.959 15.365 34.319 34.319 34.319h480.466z" />
<glyph unicode="&#xe939;" glyph-name="Arrowhead_Left" d="M716.8 207.77c0-18.954-15.36-34.319-34.319-34.319-7.752 0-14.899 2.575-20.659 6.912l-342.932 240.041c-8.448 6.257-13.911 16.292-13.911 27.597 0 11.31 5.458 21.345 13.911 27.597l342.932 240.046c5.76 4.342 12.908 6.912 20.659 6.912 18.959 0 34.319-15.36 34.319-34.314v-480.471z" />
<glyph unicode="&#xe93a;" glyph-name="Uppercase_C" d="M870.4 447.918c0-197.939-160.461-358.4-358.4-358.4s-358.4 160.461-358.4 358.4 160.461 358.4 358.4 358.4 358.4-160.456 358.4-358.4zM667.039 368.819h-80.855c-8.028-32.691-28.677-57.917-68.813-57.917-21.791 0-39.567 8.028-51.036 21.222-15.483 17.198-20.070 36.7-20.070 115.261s4.588 98.058 20.070 115.261c11.469 13.189 29.245 21.222 51.036 21.222 40.141 0 60.785-25.236 68.813-57.917h80.855c-14.341 85.443-73.974 129.019-150.241 129.019-44.728 0-81.428-16.051-110.1-44.723-41.288-41.283-40.141-92.324-40.141-162.857s-1.152-121.569 40.141-162.857c28.672-28.677 65.372-44.728 110.1-44.728 75.694-0.010 135.9 43.571 150.241 129.014z" />
<glyph unicode="&#xe93b;" glyph-name="Uppercase_D" d="M870.4 447.918c0-197.939-160.461-358.4-358.4-358.4s-358.4 160.461-358.4 358.4 160.461 358.4 358.4 358.4 358.4-160.456 358.4-358.4zM674.79 449.101c0 61.358 4.588 117.555-41.283 163.43-26.957 26.952-65.377 38.989-107.807 38.989h-147.374v-408.284h147.374c42.429 0 80.85 12.042 107.807 38.994 45.87 45.875 41.283 105.508 41.283 166.871zM595.087 449.101c0-61.932-2.294-91.177-17.203-109.527-13.763-16.63-32.108-25.236-59.633-25.236h-60.221v266.076h60.216c27.525 0 45.875-8.602 59.633-25.231 14.909-18.345 17.208-44.15 17.208-106.081z" />
<glyph unicode="&#xe93c;" glyph-name="Arrowhead_Right" d="M307.2 688.236c0 18.954 15.36 34.314 34.319 34.314 7.752 0 14.899-2.57 20.659-6.912l342.932-240.046c8.448-6.252 13.911-16.287 13.911-27.597 0-11.305-5.458-21.34-13.911-27.597l-342.932-240.046c-5.76-4.337-12.908-6.912-20.659-6.912-18.959 0.010-34.319 15.375-34.319 34.33v480.466z" />
<glyph unicode="&#xe93d;" glyph-name="Number_0" d="M870.4 447.918c0-197.939-160.461-358.4-358.4-358.4s-358.4 160.461-358.4 358.4 160.461 358.4 358.4 358.4 358.4-160.456 358.4-358.4zM636.109 361.364v172.032c0 77.988-57.344 121.569-123.863 121.569s-124.436-43.581-124.436-121.569v-172.032c0-77.988 57.917-121.569 124.436-121.569s123.863 43.581 123.863 121.569zM561.562 361.933c0-34.406-20.070-55.050-49.316-55.050s-49.889 20.644-49.889 55.050v170.317c0 34.406 20.644 55.624 49.889 55.624s49.316-21.217 49.316-55.624v-170.317z" />
<glyph unicode="&#xe93e;" glyph-name="Number_1" d="M870.4 447.918c0-197.939-160.461-358.4-358.4-358.4s-358.4 160.461-358.4 358.4 160.461 358.4 358.4 358.4 358.4-160.456 358.4-358.4zM563.871 243.236v408.284h-74.552l-83.149-72.253v-80.282l83.149 72.253v-328.003h74.552z" />
<glyph unicode="&#xe93f;" glyph-name="Number_2" d="M870.4 447.918c0-197.939-160.461-358.4-358.4-358.4s-358.4 160.461-358.4 358.4 160.461 358.4 358.4 358.4 358.4-160.456 358.4-358.4zM638.403 243.236v67.087h-157.696l114.115 132.465c28.099 32.686 43.581 53.903 43.581 93.471 0 73.4-51.61 118.702-123.858 118.702-69.96 0-124.442-44.728-124.442-119.276h74.552c0 39.567 25.231 52.183 49.889 52.183 31.539 0 49.316-20.644 49.316-51.036 0-18.924-6.303-31.539-21.217-49.316l-152.545-177.193v-67.092h248.305z" />
<glyph unicode="&#xe940;" glyph-name="Number_3" d="M870.4 447.918c0-197.939-160.461-358.4-358.4-358.4s-358.4 160.461-358.4 358.4 160.461 358.4 358.4 358.4 358.4-160.456 358.4-358.4zM640.118 361.364c0 49.316-23.511 77.409-52.756 92.897 26.957 14.336 47.027 39.567 47.027 83.722 0 68.813-52.183 116.982-124.442 116.982-68.808 0-123.29-43.581-125.010-116.408h74.552c1.72 30.966 22.359 49.316 50.458 49.316 26.952 0 49.889-17.777 49.889-52.183 0-28.672-15.478-51.036-51.61-51.036h-10.895v-64.794h10.895c36.7 0 57.344-22.364 57.344-56.202 0-36.7-22.932-56.771-55.050-56.771-29.245 0-54.477 16.63-55.624 53.33h-74.547c1.147-85.443 63.652-120.422 130.171-120.422 69.965 0 129.597 40.141 129.597 121.569z" />
<glyph unicode="&#xe941;" glyph-name="Number_4" d="M512 806.318c-197.939 0-358.4-160.461-358.4-358.4s160.461-358.4 358.4-358.4 358.4 160.461 358.4 358.4-160.461 358.4-358.4 358.4zM642.468 371.686v-70.533h-37.268v-57.917h-71.68v57.917h-170.865v70.533l143.959 279.834h98.586v-279.839h37.268zM533.519 371.686v173.942l-89.441-173.947h89.441z" />
<glyph unicode="&#xe942;" glyph-name="Number_5" d="M870.4 447.918c0-197.939-160.461-358.4-358.4-358.4s-358.4 160.461-358.4 358.4 160.461 358.4 358.4 358.4 358.4-160.456 358.4-358.4zM639.549 380.861c0 38.42-4.588 76.841-36.7 108.954-16.63 16.63-42.435 27.52-76.268 27.52-27.525 0-50.458-10.322-61.358-20.644v87.736h165.151v67.092h-232.817v-230.523h68.239c5.161 16.056 18.918 33.26 49.311 33.26 36.132 0 49.889-26.378 49.889-73.4 0-25.805-2.867-47.596-16.056-60.785-9.175-9.175-21.217-13.189-35.553-13.189-30.966 0-45.87 18.35-49.889 50.463h-74.547c2.294-29.819 8.028-59.638 33.26-84.869 17.777-17.777 48.748-32.686 91.177-32.686 42.435 0 71.68 14.909 90.030 33.26 29.824 29.824 36.132 61.937 36.132 107.812z" />
<glyph unicode="&#xe943;" glyph-name="Number_6" d="M870.4 447.918c0-197.939-160.461-358.4-358.4-358.4s-358.4 160.461-358.4 358.4 160.461 358.4 358.4 358.4 358.4-160.456 358.4-358.4zM638.403 367.094c0 75.694-52.178 121.001-107.228 121.001-9.748 0-20.644-1.152-30.397-5.166l84.869 168.591h-81.428l-86.016-176.614c-18.35-37.274-34.406-71.68-34.406-108.954 0-80.855 55.050-126.157 127.304-126.157s127.304 47.022 127.304 127.299zM563.855 366.525c0-37.852-22.364-59.638-52.756-59.638-30.397 0-52.762 21.791-52.762 59.638s22.364 59.633 52.762 59.633c31.539 0 52.756-23.506 52.756-59.633z" />
<glyph unicode="&#xe944;" glyph-name="Number_7" d="M870.4 447.918c0-197.939-160.461-358.4-358.4-358.4s-358.4 160.461-358.4 358.4 160.461 358.4 358.4 358.4 358.4-160.456 358.4-358.4zM384.942 651.52v-67.092h178.913l-132.465-341.197h80.855l132.465 341.197v67.092h-259.768z" />
<glyph unicode="&#xe945;" glyph-name="Number_8" d="M870.4 447.918c0-197.939-160.461-358.4-358.4-358.4s-358.4 160.461-358.4 358.4 160.461 358.4 358.4 358.4 358.4-160.456 358.4-358.4zM642.99 361.933c0 49.889-29.251 76.841-51.61 91.75 20.639 14.341 45.875 41.288 45.875 84.869 0 72.253-56.771 116.408-125.010 116.408s-125.583-44.155-125.583-116.403c0-43.581 25.231-70.528 45.88-84.869-22.369-14.909-51.041-41.861-51.041-91.75 0-79.135 58.491-122.138 130.744-122.138s130.744 42.998 130.744 122.132zM568.438 363.085c0-31.539-24.653-56.202-56.197-56.202s-56.197 24.658-56.197 56.202 24.653 56.771 56.197 56.771 56.197-25.231 56.197-56.771zM562.708 536.264c0-29.819-21.222-51.615-50.463-51.615s-51.036 21.791-51.036 51.615c0 29.245 21.791 51.61 51.036 51.61s50.463-22.364 50.463-51.61z" />
<glyph unicode="&#xe946;" glyph-name="Number_9" d="M870.4 447.918c0-197.939-160.461-358.4-358.4-358.4s-358.4 160.461-358.4 358.4 160.461 358.4 358.4 358.4 358.4-160.456 358.4-358.4zM640.118 528.809c0 80.855-55.050 126.157-127.299 126.157-72.253 0-127.304-47.022-127.304-127.304 0-75.694 52.756-120.996 107.807-120.996 9.748 0 20.644 1.147 30.397 5.161l-84.869-168.591h80.855l86.589 176.62c18.345 37.268 33.823 71.68 33.823 108.954zM565.576 528.23c0-37.847-22.364-59.638-52.756-59.638-31.539 0-52.762 23.511-52.762 59.638 0 37.847 22.364 59.638 52.762 59.638 30.392 0 52.756-21.791 52.756-59.638z" />
<glyph unicode="&#xe947;" glyph-name="ToolTip" d="M870.4 447.918c0-197.939-160.461-358.4-358.4-358.4s-358.4 160.461-358.4 358.4 160.461 358.4 358.4 358.4 358.4-160.456 358.4-358.4zM663.245 564.838c0 91.034-70.246 143.36-151.245 143.36-83.149 0-150.528-54.482-150.528-143.36h93.184c0 32.968 19.354 59.494 57.344 59.494 35.84 0 58.061-25.083 58.061-58.772 0-15.77-9.892-32.973-21.617-48.031l-54.221-68.091c-19.057-24.376-27.996-43.73-28.529-74.552l-0.369-21.504h93.184l0.261 15.053c0.21 12.186 6.2 27.233 13.537 36.557l54.257 70.246c20.526 26.522 36.68 53.76 36.68 89.6zM512 304.461c-32.21 0-58.327-26.122-58.327-58.332 0-32.22 26.117-58.332 58.327-58.332 32.22 0 58.327 26.112 58.327 58.332 0 32.21-26.107 58.332-58.327 58.332z" />
<glyph unicode="&#xe948;" glyph-name="Uppercase_E" d="M870.4 447.918c0-197.939-160.461-358.4-358.4-358.4s-358.4 160.461-358.4 358.4 160.461 358.4 358.4 358.4 358.4-160.456 358.4-358.4zM655.032 243.236v71.107h-189.23v99.205h161.137v71.101h-161.137v95.764h189.23v71.107h-268.943v-408.284h268.943z" />
<glyph unicode="&#xe949;" glyph-name="Arrowhead_Up" d="M271.77 243.2c-18.954 0-34.319 15.36-34.319 34.319 0 7.752 2.575 14.899 6.912 20.659l240.041 342.932c6.257 8.448 16.292 13.911 27.597 13.911 11.31 0 21.345-5.458 27.597-13.911l240.046-342.932c4.342-5.76 6.912-12.908 6.912-20.659 0-18.959-15.36-34.319-34.314-34.319h-480.471z" />
<glyph unicode="&#xe94a;" glyph-name="WiFi_Connect" d="M653.445 276.849c63.273 0 114.56 51.272 114.56 114.591 0 60.82-47.375 110.541-107.264 114.268-8.387 64.020-63.053 113.439-129.403 113.439-57.508 0-106.373-37.34-123.689-89.119-2.171 0.159-4.372 0.282-6.589 0.282-52.869 0-95.729-42.839-95.729-95.78 0-5.248 0.456-10.481 1.311-15.549-29.368-9.411-50.642-36.818-50.642-69.32 0-40.202 32.645-72.812 72.858-72.812h324.588z" />
<glyph unicode="&#xe94b;" glyph-name="ToolTip_Small" d="M691.2 447.918c0-98.97-80.23-179.2-179.2-179.2s-179.2 80.23-179.2 179.2 80.23 179.2 179.2 179.2 179.2-80.23 179.2-179.2zM587.622 506.378c0 45.522-35.118 71.68-75.622 71.68-41.574 0-75.264-27.238-75.264-71.68h46.592c0 16.486 9.677 29.752 28.672 29.752 17.92 0 29.030-12.544 29.030-29.389 0-7.885-4.946-16.492-10.808-24.013l-27.11-34.043c-9.523-12.191-13.993-21.868-14.259-37.274l-0.189-10.757h46.597l0.128 7.532c0.108 6.088 3.098 13.619 6.764 18.278l27.131 35.118c10.26 13.256 18.34 26.875 18.34 44.795zM512 376.192c-16.108 0-29.158-13.061-29.158-29.164 0-16.108 13.056-29.164 29.158-29.164 16.108 0 29.158 13.056 29.158 29.164 0 16.102-13.051 29.164-29.158 29.164z" />
<glyph unicode="&#xe94c;" glyph-name="Reveal_Password" d="M268.8 396.8h-115.2c26.972 57.779 144.66 204.8 358.4 204.8s331.428-147.021 358.4-204.8h-115.2c-40.438 85.868-154.752 140.8-243.2 140.8-88.428 0-202.737-54.932-243.2-140.8zM512 473.6c-42.414 0-76.8-34.386-76.8-76.8s34.386-76.8 76.8-76.8 76.8 34.386 76.8 76.8-34.386 76.8-76.8 76.8z" />
<glyph unicode="&#xe94d;" glyph-name="Polygon" d="M563.2 89.6c-6.973 0-13.839 2.196-19.584 6.374l-376.32 273.92c-7.7 5.606-12.631 14.239-13.542 23.726s2.289 18.898 8.781 25.871l350.72 376.32c9.375 10.061 23.972 13.322 36.751 8.192l299.52-120.32c8.699-3.492 15.524-10.501 18.79-19.287 3.267-8.791 2.673-18.545-1.628-26.875l-273.92-529.92c-4.46-8.627-12.462-14.868-21.903-17.106-2.54-0.599-5.11-0.896-7.665-0.896zM236.841 401.597l314.598-228.992 239.304 462.956-244.367 98.171-309.535-332.134z" />
<glyph unicode="&#xe94e;" glyph-name="Switch" d="M540.365 698.952l-183.342-203.709c-7.624 2.534-15.749 3.958-24.223 3.958-31.483 0-58.511-18.964-70.369-46.080h-108.831v-61.44h108.831c11.858-27.116 38.886-46.080 70.369-46.080 42.414 0 76.8 34.386 76.8 76.8 0 11.325-2.514 22.047-6.922 31.724l183.357 203.725c11.351 12.611 10.327 32.036-2.284 43.387-12.611 11.346-32.041 10.327-43.387-2.284zM870.4 453.12h-108.836c-11.853 27.116-38.881 46.080-70.364 46.080-42.414 0-76.8-34.386-76.8-76.8s34.386-76.8 76.8-76.8c31.483 0 58.511 18.964 70.364 46.080h108.836v61.44z" />
<glyph unicode="&#xe94f;" glyph-name="Submersible_Transformer" d="M870.4 192h-716.8v512h716.8v-512zM803.84 637.44h-583.68v-378.88h583.68v378.88zM650.24 310.856c9.544 0 17.28 7.741 17.28 17.28 0 2.877-0.707 5.601-1.951 7.992l-138.46 242.345c-2.949 5.299-8.612 8.883-15.109 8.883s-12.155-3.584-15.104-8.883l-138.46-242.345c-1.244-2.391-1.956-5.11-1.956-7.992 0-9.539 7.741-17.28 17.28-17.28h276.48z" />
<glyph unicode="&#xe950;" glyph-name="Pole" d="M870.4 448c0-197.939-160.461-358.4-358.4-358.4-197.934 0-358.4 160.461-358.4 358.4 0 197.934 160.466 358.4 358.4 358.4 197.939 0 358.4-160.466 358.4-358.4zM512 729.6c-155.52 0-281.6-126.080-281.6-281.6 0-155.525 126.080-281.6 281.6-281.6s281.6 126.075 281.6 281.6c0 155.52-126.080 281.6-281.6 281.6z" />
<glyph unicode="&#xe951;" glyph-name="Padmount_Transformer" d="M870.4 89.6h-716.8v716.8h716.8v-716.8zM793.6 729.6h-563.2v-563.2h563.2v563.2zM716.8 253.44c14.141 0 25.6 11.464 25.6 25.6 0 4.27-1.044 8.294-2.893 11.837l-205.128 359.004c-4.367 7.849-12.754 13.158-22.38 13.158s-18.012-5.309-22.38-13.158l-205.123-359.004c-1.853-3.543-2.898-7.567-2.898-11.837 0-14.136 11.459-25.6 25.6-25.6h409.6z" />
<glyph unicode="&#xe952;" glyph-name="Move_Up_Down" d="M522.762 792.745l128.671-146.125c7.332-8.32 7.332-21.75 0-30.075-3.61-4.173-8.381-6.308-13.164-6.308h-62.766v-84.552c0-9.887-8.084-17.94-17.946-17.94h-91.069c-9.948 0-17.971 8.054-17.971 17.94v84.552h-62.828c-4.751 0-9.528 2.135-13.251 6.308-7.153 8.325-7.153 21.755 0 30.075l128.66 146.125c6.011 6.815 15.713 6.815 21.663 0zM501.192 103.214l-128.748 146.278c-7.153 8.228-7.153 21.658 0 30.070 3.697 4.091 8.499 6.19 13.251 6.19h62.828v84.531c0 9.938 8.079 17.961 17.971 17.961h91.064c9.892 0 17.946-8.018 17.946-17.961v-84.531h62.766c4.787 0 9.523-2.099 13.225-6.19 7.27-8.412 7.27-21.842 0-30.070l-128.666-146.278c-6.016-6.748-15.657-6.748-21.637 0z" />
<glyph unicode="&#xe953;" glyph-name="Move_4_Way" d="M520.755 801.853l103.629-119.777c5.842-6.712 5.842-17.582 0-24.223-2.939-3.389-6.769-5.053-10.66-5.053h-50.524v-88.008c0-7.956-6.508-14.392-14.428-14.392h-73.564c-7.967 0-14.408 6.436-14.408 14.392v88.008h-50.519c-3.84 0-7.7 1.664-10.66 5.053-5.842 6.646-5.842 17.516 0 24.223l103.608 119.777c4.849 5.54 12.744 5.54 17.526 0zM503.229 94.147l-103.608 119.777c-5.842 6.712-5.842 17.582 0 24.223 2.959 3.389 6.82 5.053 10.66 5.053h50.519v88.008c0 7.956 6.441 14.392 14.408 14.392h73.559c7.921 0 14.428-6.436 14.428-14.392v-88.008h50.524c3.891 0 7.721-1.664 10.66-5.053 5.842-6.646 5.842-17.516 0-24.223l-103.629-119.777c-4.777-5.54-12.672-5.54-17.521 0zM865.859 439.25l-119.777-103.629c-6.712-5.842-17.582-5.842-24.223 0-3.389 2.939-5.053 6.769-5.053 10.66v50.524h-88.008c-7.956 0-14.392 6.508-14.392 14.428v73.564c0 7.972 6.436 14.408 14.392 14.408h88.008v50.524c0 3.84 1.664 7.69 5.053 10.65 6.646 5.842 17.516 5.842 24.223 0l119.777-103.608c5.54-4.838 5.54-12.739 0-17.521zM158.152 456.771l119.777 103.608c6.712 5.842 17.582 5.842 24.223 0 3.389-2.959 5.053-6.81 5.053-10.65v-50.524h88.008c7.956 0 14.392-6.441 14.392-14.408v-73.559c0-7.921-6.436-14.428-14.392-14.428h-88.008v-50.524c0-3.891-1.664-7.721-5.053-10.66-6.646-5.842-17.516-5.842-24.223 0l-119.777 103.629c-5.54 4.777-5.54 12.677 0 17.516z" />
<glyph unicode="&#xe954;" glyph-name="Measurement" d="M363.377 624.788c0-22.441 0.963-43.878 3.318-56.76h-65.29l-4.275 23.419h-1.439c-15.288-18.642-39.060-28.641-66.749-28.641-47.155 0.005-75.341 34.253-75.341 71.48 0 60.626 54.39 89.59 136.868 89.155v3.318c0 12.421-6.661 30.080-42.445 30.080-23.818 0-49.101-8.161-64.338-17.659l-13.363 46.7c16.205 9.083 48.164 20.521 90.583 20.521 77.691 0 102.472-45.798 102.472-100.634v-80.978zM292.818 678.19c-38.118 0.43-67.671-8.602-67.671-36.721 0-18.58 12.375-27.679 28.6-27.679 18.12 0 32.87 11.935 37.658 26.691 0.922 3.825 1.413 8.1 1.413 12.457v25.252zM630.134 704h72.489v-132.992h0.957c13.763 20.029 38.077 32.876 70.502 32.876 55.818 0 96.768-46.198 96.317-117.688 0-83.901-53.427-125.855-106.778-125.855-27.151 0-53.422 10.020-70.072 37.678h-0.973l-2.831-32.476h-61.496c0.963 15.334 1.884 43.412 1.884 69.652v268.805zM702.623 464.753c0-4.797 0.44-9.068 1.413-12.856 4.731-19.558 21.417-34.371 42.429-34.371 30.95 0 50.028 23.839 50.028 65.807 0 36.188-16.2 64.814-50.028 64.814-19.564 0-37.699-14.761-42.429-35.758-0.973-4.285-1.413-8.55-1.413-13.358v-34.278zM767.36 256.189c-21.868 0-41.738-8.141-56.822-21.402l-368.778 160.686c-0.031 45.978-38.124 83.246-85.12 83.246-47.012 0-85.12-37.289-85.12-83.302 0-45.993 38.108-83.292 85.12-83.292 21.868 0 41.743 8.141 56.822 21.402l368.783-160.691c0.026-45.972 38.124-83.241 85.115-83.241 47.012 0 85.12 37.299 85.12 83.297 0 46.003-38.108 83.297-85.12 83.297z" />
<glyph unicode="&#xe955;" glyph-name="Uppercase_A" d="M870.4 447.918c0-197.939-160.461-358.4-358.4-358.4s-358.4 160.461-358.4 358.4 160.461 358.4 358.4 358.4 358.4-160.456 358.4-358.4zM692.019 243.236l-149.089 408.284h-62.505l-148.521-408.284h83.149l24.658 72.253h145.080l24.084-72.253h83.144zM563.569 382.582h-101.494l51.61 148.521 49.884-148.521z" />
<glyph unicode="&#xe956;" glyph-name="Uppercase_B" d="M870.4 447.918c0-197.939-160.461-358.4-358.4-358.4s-358.4 160.461-358.4 358.4 160.461 358.4 358.4 358.4 358.4-160.456 358.4-358.4zM670.828 360.791c0 54.477-31.539 80.282-56.197 91.75 20.644 9.748 50.463 38.994 50.463 84.296 0 69.96-46.449 114.683-126.162 114.683h-163.994v-408.284h170.88c72.832 0 125.010 41.288 125.010 117.555zM585.39 533.396c0-28.099-18.924-47.022-52.762-47.022h-77.983v94.039h77.983c33.838 0 52.762-18.924 52.762-47.017zM591.119 364.805c0-27.525-17.198-50.463-53.325-50.463h-83.149v100.357h83.149c36.127-0.005 53.325-22.369 53.325-49.894z" />
<glyph unicode="&#xe957;" glyph-name="Marquee" d="M371.651 361.687l-41.108-41.011-6.149 6.17-170.793-170.696 66.642-66.55 170.772 170.701-5.571 5.632 40.97 40.955c79.585-53.786 188.636-45.67 259.215 24.658 80.020 79.974 80.241 209.638 0.292 289.787-79.928 80.015-209.536 80.241-289.664 0.205-70.789-70.579-78.976-180.152-24.607-259.85zM442.511 378.348c-54.282 54.528-54.108 142.495 0.128 196.859 54.61 54.262 142.495 54.077 196.777-0.184 54.231-54.502 54.159-142.566-0.138-196.925-54.482-54.164-142.479-54.036-196.767 0.251zM614.4 755.2h-153.6v51.2h153.6v-51.2zM870.4 396.8v153.6h-51.2v-153.6h51.2zM716.8 806.4v-51.2h102.4v-102.4h51.2v153.6h-153.6zM460.8 140.8h153.6v51.2h-153.6v-51.2zM819.2 294.4v-102.4h-102.4v-51.2h153.6v153.6h-51.2zM358.4 806.4h-153.6v-153.6h51.2v102.4h102.4v51.2zM204.8 550.4v-153.6h51.2v153.6h-51.2z" />
<glyph unicode="&#xe958;" glyph-name="Layers" d="M870.4 627.2l-460.8 179.2-256-128 460.8-179.2 256 128zM709.12 485.12l161.28-62.72-256-128-460.8 179.2 161.28 80.64 299.52-116.48 94.72 47.36zM709.12 280.32l161.28-62.72-256-128-460.8 179.2 161.28 80.64 299.52-116.48 94.72 47.36z" />
<glyph unicode="&#xe959;" glyph-name="Visible" d="M870.4 448.026c0-37.028-160.481-185.267-358.415-185.267-197.929 0-358.385 148.234-358.385 185.267 0 37.012 160.456 185.252 358.385 185.252 197.934 0 358.415-148.239 358.415-185.252zM511.985 590.024c-78.403 0-142.019-63.56-142.019-141.998 0-78.484 63.616-142.039 142.019-142.039 78.444 0 142.054 63.555 142.054 142.039 0 78.438-63.611 141.998-142.054 141.998zM511.985 504.463c-31.145 0-56.422-25.277-56.422-56.438 0-31.212 25.277-56.489 56.422-56.489 31.176 0 56.448 25.283 56.448 56.489 0 31.165-25.272 56.438-56.448 56.438z" />
<glyph unicode="&#xe95a;" glyph-name="Invisible" d="M511.954 253.906c-112.896 0-205.123 48.707-250.291 77.742-52.050 33.454-108.063 84.137-108.063 116.367 0 32.236 56.013 82.913 108.063 116.367 45.169 29.036 137.395 77.737 250.291 77.737 112.901 0 205.225-48.707 250.388-77.737 52.045-33.454 108.058-84.132 108.058-116.367 0-32.23-56.013-82.913-108.052-116.372-45.169-29.030-137.492-77.737-250.394-77.737zM189.501 448.015c5.806-28.37 145.080-158.269 322.452-158.269s316.733 129.9 322.545 158.269c-5.806 28.37-145.157 158.259-322.545 158.259s-316.646-129.889-322.452-158.259zM511.954 326.426c-67 0-121.513 54.543-121.513 121.59 0 67.026 54.513 121.554 121.513 121.554 67.057 0 121.605-54.528 121.605-121.554 0-67.046-54.548-121.59-121.605-121.59zM511.954 533.729c-47.242 0-85.673-38.451-85.673-85.714 0-47.283 38.431-85.75 85.673-85.75 47.288 0 85.765 38.467 85.765 85.75 0 47.263-38.472 85.714-85.765 85.714z" />
<glyph unicode="&#xe95b;" glyph-name="Delete" d="M625.111 636.559l-113.106-113.091-113.126 113.091c-20.828 20.828-54.548 20.828-75.387 0-20.823-20.833-20.823-54.61 0-75.412l113.101-113.152-113.101-113.121c-20.823-20.797-20.823-54.6 0-75.428 20.833-20.782 54.554-20.782 75.387 0l113.126 113.152 113.106-113.152c20.838-20.782 54.641-20.782 75.392 0 20.828 20.828 20.828 54.661 0.082 75.459l-113.172 113.121 113.085 113.126c20.828 20.828 20.828 54.574 0 75.412-20.746 20.797-54.548 20.823-75.387-0.005z" />
<glyph unicode="&#xe95c;" glyph-name="Crown_Jewels" d="M749.271 205.819c0-22.482 0-45.891 0-45.891 0-24.125-25.518-41.948-77.998-54.492-42.762-10.209-99.323-15.836-159.273-15.836s-116.516 5.627-159.268 15.841c-52.485 12.539-78.003 30.367-78.003 54.492 0 0 0 23.439 0 45.942 3.523-21.473 29.005-37.622 77.686-49.229 42.839-10.22 99.517-15.846 159.585-15.846s116.751 5.627 159.59 15.841c48.645 11.597 74.122 27.735 77.681 49.178zM825.288 646.712c-24.909 0-45.112-20.198-45.112-45.112 0-12.969 5.504-24.632 14.269-32.855l-84.654-134.543c-2.57-4.168-7.178-6.948-12.436-6.948-8.059 0-14.592 6.528-14.592 14.592 0 0.379 0.010 0.753 0.041 1.126l17.096 192.717c26.148 1.69 46.853 23.378 46.853 49.961 0 27.679-22.441 50.12-50.12 50.12s-50.125-22.441-50.125-50.12c0-16.732 8.228-31.508 20.828-40.612l-72.704-186.747c-2.109-5.97-7.798-10.255-14.495-10.255-7.767 0-14.188 5.765-15.217 13.251l-34.488 236.923c21.678 7.613 37.258 28.211 37.258 52.5 0 30.761-24.94 55.69-55.69 55.69-30.756 0-55.69-24.929-55.69-55.69 0-24.289 15.575-44.892 37.258-52.5l-34.488-236.923c-1.029-7.485-7.455-13.251-15.217-13.251-6.692 0-12.385 4.285-14.495 10.255l-72.714 186.737c12.595 9.098 20.828 23.88 20.828 40.612 0 27.679-22.446 50.12-50.125 50.12-27.684 0-50.125-22.441-50.125-50.12 0-26.578 20.705-48.271 46.858-49.961l17.091-192.717c0.026-0.369 0.041-0.748 0.041-1.126 0-8.059-6.533-14.592-14.592-14.592-5.253 0-9.866 2.78-12.436 6.948l-84.639 134.554c8.76 8.228 14.269 19.886 14.269 32.855 0 24.909-20.204 45.112-45.112 45.112-24.914 0-45.112-20.204-45.112-45.112s20.198-45.112 45.112-45.112c0.553 0 1.096 0.061 1.649 0.082 13.921-56.003 74.368-300.324 74.368-320.937 0-1.316 0-2.739 0-4.224 3.523-21.473 29.005-37.622 77.686-49.229 42.839-10.214 99.517-15.841 159.58-15.841 60.068 0 116.751 5.627 159.59 15.841 48.645 11.602 74.127 27.735 77.681 49.178 0 1.505 0 2.944 0 4.275 0 20.608 60.452 264.929 74.373 320.937 0.548-0.020 1.091-0.082 1.644-0.082 24.909 0 45.112 20.198 45.112 45.112s-20.193 45.112-45.107 45.112zM512 233.805l-44.001 68.905 44.001 68.91 44.001-68.91-44.001-68.905zM358.4 264.602l-27.884 43.689 27.884 43.653 27.899-43.653-27.899-43.689zM665.6 264.602l-27.884 43.689 27.884 43.653 27.899-43.653-27.899-43.689z" />
<glyph unicode="&#xe95d;" glyph-name="Asset_Default" d="M870.4 447.918c0-197.939-160.461-358.4-358.4-358.4s-358.4 160.461-358.4 358.4 160.461 358.4 358.4 358.4 358.4-160.456 358.4-358.4z" />
<glyph unicode="&#xe95e;" glyph-name="Arrowhead_Down_Picker" d="M632.12 549.847c9.477 0 17.157-7.68 17.157-17.162 0-3.876-1.285-7.45-3.456-10.332l-120.018-171.464c-3.128-4.224-8.146-6.953-13.798-6.953s-10.67 2.729-13.798 6.953l-120.028 171.464c-2.171 2.877-3.456 6.456-3.456 10.332 0 9.482 7.685 17.162 17.162 17.162h240.236z" />
<glyph unicode="&#xe95f;" glyph-name="Arrowhead_Left_Picker" d="M613.847 327.885c0-9.477-7.68-17.162-17.162-17.162-3.876 0-7.45 1.285-10.332 3.456l-171.464 120.018c-4.224 3.128-6.953 8.151-6.953 13.798 0 5.652 2.729 10.67 6.953 13.798l171.464 120.018c2.877 2.171 6.456 3.456 10.332 3.456 9.482 0 17.162-7.68 17.162-17.157v-240.225z" />
<glyph unicode="&#xe960;" glyph-name="Arrowhead_Right_Picker" d="M410.153 568.12c0 9.477 7.68 17.157 17.162 17.157 3.876 0 7.45-1.285 10.332-3.456l171.464-120.018c4.224-3.128 6.953-8.146 6.953-13.798s-2.729-10.67-6.953-13.798l-171.464-120.018c-2.877-2.171-6.456-3.456-10.332-3.456-9.482 0-17.162 7.685-17.162 17.162v240.225z" />
<glyph unicode="&#xe961;" glyph-name="Arrowhead_Up_Picker" d="M391.885 346.153c-9.477 0-17.162 7.68-17.162 17.162 0 3.876 1.285 7.45 3.456 10.332l120.023 171.464c3.128 4.224 8.146 6.953 13.798 6.953s10.67-2.729 13.798-6.953l120.018-171.464c2.171-2.877 3.456-6.456 3.456-10.332 0-9.482-7.68-17.162-17.157-17.162h-240.23z" />
<glyph unicode="&#xe962;" glyph-name="Alert_Tab" d="M563.2 345.6c0-28.273-22.927-51.2-51.2-51.2-28.278 0-51.2 22.927-51.2 51.2s22.922 51.2 51.2 51.2c28.273 0 51.2-22.927 51.2-51.2zM561.828 538.563c0.896 3.799 1.372 7.762 1.372 11.837 0 28.273-22.922 51.2-51.2 51.2s-51.2-22.927-51.2-51.2c0-4.076 0.476-8.038 1.372-11.837l30.961-117.658h37.74l30.956 117.658z" />
<glyph unicode="&#xe963;" glyph-name="Vault" d="M870.4 716.8h-716.8v89.6h716.8v-89.6zM870.4 560h-716.8v89.6h716.8v-89.6zM870.4 403.2h-716.8v89.6h716.8v-89.6zM870.4 246.4h-716.8v89.6h716.8v-89.6zM870.4 179.2h-716.8v-89.6h716.8v89.6z" />
<glyph unicode="&#xe964;" glyph-name="Transformer" d="M830.648 140.8c21.996 0 39.823 17.828 39.823 39.813 0 6.641-1.623 12.908-4.506 18.417l-319.089 558.459c-6.799 12.211-19.84 20.47-34.811 20.47s-28.012-8.259-34.821-20.47l-319.078-558.459c-2.877-5.509-4.511-11.776-4.511-18.417 0-21.985 17.828-39.813 39.828-39.813h637.164z" />
<glyph unicode="&#xe965;" glyph-name="Transformer_Bank" d="M670.024 448c10.926 0 19.722 8.858 19.722 19.732 0 3.302-0.809 6.41-2.176 9.139l-158.269 277.012c-3.384 6.067-9.866 10.168-17.3 10.168-7.429 0-13.88-4.106-17.265-10.168l-158.275-277.012c-1.428-2.729-2.232-5.842-2.232-9.139 0-10.87 8.852-19.732 19.748-19.732h316.047zM489.426 131.948c10.931 0 19.773 8.852 19.773 19.779 0 3.292-0.809 6.339-2.243 9.088l-158.269 277.002c-3.369 6.072-9.851 10.168-17.29 10.168-7.409 0-13.891-4.101-17.27-10.168l-158.239-276.997c-1.428-2.749-2.243-5.801-2.243-9.088 0-10.931 8.832-19.779 19.748-19.779h316.032zM850.596 131.948c10.936 0 19.814 8.852 19.814 19.779 0 3.292-0.814 6.339-2.243 9.088l-158.3 277.002c-3.369 6.072-9.851 10.168-17.295 10.168-7.383 0-13.855-4.101-17.234-10.168l-158.269-276.997c-1.428-2.749-2.243-5.801-2.243-9.088 0-10.931 8.858-19.779 19.727-19.779h316.042z" />
<glyph unicode="&#xe966;" glyph-name="Manhole" d="M870.4 89.6h-716.8v716.8h716.8v-716.8zM243.2 204.8c0-21.212 17.188-38.4 38.4-38.4s38.4 17.188 38.4 38.4v486.4c0 21.212-17.188 38.4-38.4 38.4s-38.4-17.188-38.4-38.4v-486.4zM396.8 204.8c0-21.212 17.188-38.4 38.4-38.4s38.4 17.188 38.4 38.4v486.4c0 21.212-17.188 38.4-38.4 38.4s-38.4-17.188-38.4-38.4v-486.4zM550.4 204.8c0-21.212 17.188-38.4 38.4-38.4s38.4 17.188 38.4 38.4v486.4c0 21.212-17.188 38.4-38.4 38.4s-38.4-17.188-38.4-38.4v-486.4zM704 204.8c0-21.212 17.188-38.4 38.4-38.4s38.4 17.188 38.4 38.4v486.4c0 21.212-17.188 38.4-38.4 38.4s-38.4-17.188-38.4-38.4v-486.4z" />
<glyph unicode="&#xe967;" glyph-name="Cubicle" d="M332.81 137.564l-179.19 310.354 179.19 310.38h358.497l179.072-310.38-179.072-310.354z" />
<glyph unicode="&#xe968;" glyph-name="Add" d="M458.665 661.315l-0.010-159.944-159.959-0.026c-29.455 0.005-53.304-23.844-53.304-53.304 0.010-29.46 23.89-53.34 53.32-53.32l159.99-0.041 0.010-159.959c-0.020-29.43 23.88-53.33 53.34-53.34 29.42 0.041 53.268 23.89 53.299 53.309l-0.015 160 159.985-0.031c29.43 0.041 53.33 23.941 53.309 53.309 0 29.455-23.921 53.376-53.299 53.412l-160.010-0.031-0.020 159.949c-0.005 29.46-23.864 53.32-53.325 53.325-29.379 0.036-53.304-23.844-53.309-53.309z" />
<glyph unicode="&#xe969;" glyph-name="Begin_Audit" d="M614.4 742.4v-64h-204.8v64c0 14.141 11.459 25.6 25.6 25.6h27.279c5.688 22.072 25.672 38.4 49.521 38.4s43.832-16.328 49.521-38.4h27.279c14.141 0 25.6-11.459 25.6-25.6zM537.6 755.2c0 14.141-11.459 25.6-25.6 25.6s-25.6-11.459-25.6-25.6 11.459-25.6 25.6-25.6 25.6 11.459 25.6 25.6zM806.4 691.2c0 28.278-22.932 51.2-51.2 51.2h-102.4v-64.036h89.6v-362.225l64-64v439.060zM281.6 153.564v524.8h89.6v64.036h-102.4c-28.278 0-51.2-22.922-51.2-51.2v-550.4c0-28.273 22.922-51.2 51.2-51.2h482.918l-63.969 63.964h-406.149zM497.71 369.551l99.4 99.446c8.32 8.284 8.32 21.765 0 30.080-8.289 8.279-21.75 8.279-30.060 0l-84.367-84.424-25.713 25.733c-8.351 8.305-21.719 8.305-30.065 0-8.33-8.34-8.33-21.775 0-30.054l40.684-40.781c4.019-3.983 9.411-6.211 15.094-6.211 5.632 0 11.028 2.222 15.027 6.211zM602.563 528.394c49.981-49.987 49.981-131.036 0-181.018-49.992-49.992-131.041-49.992-181.028 0-49.992 49.987-49.992 131.036 0 181.023 49.987 49.981 131.036 49.987 181.028-0.005zM638.761 564.598c-69.98 69.98-183.45 69.98-253.43 0s-69.98-183.444 0-253.425c63.841-63.836 163.83-69.417 234.020-16.799l39.132-39.137-9.052-9.052 156.595-156.585 54.298 54.303-156.59 156.595-9.052-9.052-39.137 39.137c52.623 70.185 47.048 170.184-16.783 234.015z" />
<glyph unicode="&#xe96a;" glyph-name="Asset_Picker" d="M230.4 166.364v563.2h563.2v-563.2h-563.2zM819.2 89.6c28.278 0 51.2 22.927 51.2 51.2v614.4c0 28.278-22.922 51.2-51.2 51.2h-614.4c-28.278 0-51.2-22.922-51.2-51.2v-614.4c0-28.273 22.922-51.2 51.2-51.2h614.4zM704 560h-384v89.6h384v-89.6zM704 403.2h-384v89.6h384v-89.6zM704 246.4h-384v89.6h384v-89.6z" />
<glyph unicode="&#xe96b;" glyph-name="Adjust" d="M439.68 757.361c-46.556 46.536-113.556 59.858-171.986 40.233l111.355-111.329-22.216-83.067-83.046-22.221-111.375 111.334c-19.625-58.378-6.298-125.404 40.233-171.93 47.452-47.478 116.27-60.477 175.421-39.132l370.883-370.78c27.735-27.837 72.837-27.837 100.639 0 27.791 27.756 27.791 72.878 0 100.639l-370.806 370.806c21.376 59.203 8.351 128.046-39.101 175.447z" />
<glyph unicode="&#xe96c;" glyph-name="Map_Tools" d="M512 806.4c-132.797 0-241.347-108.099-241.347-241.413 0-215.572 241.347-475.387 241.347-475.387s241.352 259.814 241.352 475.387c0 133.315-108.57 241.413-241.352 241.413zM697.134 558.423c3.83-1.526 6.108-6.016 5.028-9.958l-14.29-53.299c-1.029-3.968-5.284-6.676-9.303-6.083l-54.354 7.992c-9.964-15.16-22.932-28.319-38.472-38.538l8.013-54.216c0.609-4.142-2.14-8.3-6.088-9.354l-53.294-14.31c-3.994-1.060-8.484 1.244-9.964 5.048l-20.209 51.046c-18.519 1.029-36.357 5.965-52.572 14.121l-43.003-34.104c-3.22-2.565-8.294-2.304-11.187 0.558l-39.009 39.009c-2.888 2.964-3.174 7.946-0.609 11.208l33.956 42.844c-3.994 8.079-7.332 16.635-9.728 25.661-2.447 9.068-3.804 18.094-4.413 27.121l-50.811 20.142c-3.876 1.526-6.134 6.042-5.048 9.984l14.239 53.299c1.106 3.948 5.335 6.717 9.4 6.108l54.308-8.059c9.958 15.206 22.932 28.436 38.446 38.61l-7.967 54.144c-0.635 4.137 2.115 8.366 6.083 9.4l53.299 14.285c3.968 1.060 8.433-1.193 9.938-5.074l20.209-50.898c18.493-1.080 36.357-6.042 52.572-14.239l43.049 34.145c3.22 2.56 8.274 2.278 11.095-0.609l39.030-39.009c2.913-2.913 3.22-7.946 0.589-11.208l-33.961-42.839c4.019-8.084 7.357-16.614 9.8-25.692 2.401-9.021 3.784-18.094 4.326-27.069l50.903-20.168zM511.98 634.404c-35.108 0-63.473-28.416-63.473-63.524 0-35.036 28.365-63.468 63.473-63.468 35.062 0 63.452 28.436 63.452 63.468 0 35.108-28.39 63.524-63.452 63.524z" />
<glyph unicode="&#xe96d;" glyph-name="List" d="M870.4 691.2c0-14.141-11.459-25.6-25.6-25.6h-409.6c-14.141 0-25.6 11.459-25.6 25.6v76.8c0 14.141 11.459 25.6 25.6 25.6h409.6c14.141 0 25.6-11.459 25.6-25.6v-76.8zM870.4 128c0-14.141-11.459-25.6-25.6-25.6h-409.6c-14.141 0-25.6 11.459-25.6 25.6v76.8c0 14.141 11.459 25.6 25.6 25.6h409.6c14.141 0 25.6-11.459 25.6-25.6v-76.8zM230.4 806.4c-42.414 0-76.8-34.386-76.8-76.8s34.386-76.8 76.8-76.8 76.8 34.386 76.8 76.8-34.386 76.8-76.8 76.8zM870.4 409.6c0-14.141-11.459-25.6-25.6-25.6h-409.6c-14.141 0-25.6 11.459-25.6 25.6v76.8c0 14.141 11.459 25.6 25.6 25.6h409.6c14.141 0 25.6-11.459 25.6-25.6v-76.8zM230.4 524.8c-42.414 0-76.8-34.386-76.8-76.8s34.386-76.8 76.8-76.8 76.8 34.386 76.8 76.8-34.386 76.8-76.8 76.8zM230.4 243.2c-42.414 0-76.8-34.386-76.8-76.8s34.386-76.8 76.8-76.8 76.8 34.386 76.8 76.8-34.386 76.8-76.8 76.8z" />
<glyph unicode="&#xe96e;" glyph-name="Layer_Inactive" d="M870.4 447.918c0-197.939-160.461-358.4-358.4-358.4s-358.4 160.461-358.4 358.4 160.461 358.4 358.4 358.4 358.4-160.456 358.4-358.4zM512 705.705c-142.372 0-257.792-115.415-257.792-257.787s115.42-257.792 257.792-257.792 257.787 115.42 257.787 257.792-115.415 257.787-257.787 257.787z" />
<glyph unicode="&#xe96f;" glyph-name="Layer_Active" d="M870.4 447.918c0-197.939-160.461-358.4-358.4-358.4s-358.4 160.461-358.4 358.4 160.461 358.4 358.4 358.4 358.4-160.456 358.4-358.4z" />
<glyph unicode="&#xe970;" glyph-name="Legend" d="M870.4 486.4c0 14.141-11.459 25.6-25.6 25.6h-409.6c-14.141 0-25.6-11.459-25.6-25.6v-76.8c0-14.141 11.459-25.6 25.6-25.6h409.6c14.141 0 25.6 11.459 25.6 25.6v76.8zM870.4 755.2c0 14.141-11.459 25.6-25.6 25.6h-409.6c-14.141 0-25.6-11.459-25.6-25.6v-76.8c0-14.141 11.459-25.6 25.6-25.6h409.6c14.141 0 25.6 11.459 25.6 25.6v76.8zM870.4 217.6c0 14.141-11.459 25.6-25.6 25.6h-409.6c-14.141 0-25.6-11.459-25.6-25.6v-76.8c0-14.141 11.459-25.6 25.6-25.6h409.6c14.141 0 25.6 11.459 25.6 25.6v76.8zM332.8 652.8c0-14.141-11.459-25.6-25.6-25.6h-128c-14.141 0-25.6 11.459-25.6 25.6v128c0 14.141 11.459 25.6 25.6 25.6h128c14.141 0 25.6-11.459 25.6-25.6v-128zM332.8 384c0-14.141-11.459-25.6-25.6-25.6h-128c-14.141 0-25.6 11.459-25.6 25.6v128c0 14.141 11.459 25.6 25.6 25.6h128c14.141 0 25.6-11.459 25.6-25.6v-128zM332.8 115.2c0-14.141-11.459-25.6-25.6-25.6h-128c-14.141 0-25.6 11.459-25.6 25.6v128c0 14.141 11.459 25.6 25.6 25.6h128c14.141 0 25.6-11.459 25.6-25.6v-128z" />
<glyph unicode="&#xe971;" glyph-name="Box_Unchecked" d="M870.4 252.308v391.424c0 89.692-72.991 162.668-162.703 162.668h-391.393c-89.713 0-162.703-72.975-162.703-162.668v-391.419c0-89.723 72.991-162.714 162.703-162.714h391.388c89.718 0 162.708 72.991 162.708 162.708zM707.697 729.6c47.37 0 85.903-38.518 85.903-85.868v-391.419c0-47.37-38.533-85.908-85.903-85.908h-391.393c-47.37-0.005-85.903 38.533-85.903 85.903v391.424c0 47.35 38.533 85.868 85.903 85.868h391.393z" />
<glyph unicode="&#xe972;" glyph-name="Box_Checked" d="M476.252 286.531l247.956 248.069c20.762 20.659 20.762 54.292 0 75.028-20.68 20.659-54.252 20.659-74.982 0l-210.452-210.601-64.154 64.205c-20.828 20.721-54.18 20.721-74.988 0-20.782-20.797-20.782-54.318 0-74.972l101.489-101.729c10.020-9.938 23.47-15.488 37.652-15.488 14.034 0 27.494 5.545 37.478 15.488zM870.4 252.308v391.424c0 89.692-72.991 162.668-162.703 162.668h-391.393c-89.713 0-162.703-72.975-162.703-162.668v-391.419c0-89.723 72.991-162.714 162.703-162.714h391.388c89.718 0 162.708 72.991 162.708 162.708zM707.697 729.6c47.37 0 85.903-38.518 85.903-85.868v-391.419c0-47.37-38.533-85.908-85.903-85.908h-391.393c-47.37-0.005-85.903 38.533-85.903 85.903v391.424c0 47.35 38.533 85.868 85.903 85.868h391.393z" />
<glyph unicode="&#xe973;" glyph-name="Measure_Start_Icon" d="M209.418 145.352c0-20.895 16.942-37.837 37.827-37.837 6.308 0 12.262 1.546 17.495 4.28l530.534 303.135c11.602 6.461 19.451 18.852 19.451 33.070s-7.849 26.609-19.451 33.080l-530.534 303.124c-5.233 2.734-11.187 4.285-17.495 4.285-20.884 0-37.827-16.942-37.827-37.842v-605.297z" />
<glyph unicode="&#xe974;" glyph-name="Measure_Stop_Icon" d="M761.523 156.892c22.973 0 41.585 18.616 41.585 41.585v499.046c0 22.973-18.611 41.59-41.585 41.59h-499.046c-22.973 0-41.59-18.616-41.59-41.59v-499.046c0-22.968 18.616-41.585 41.59-41.585h499.046z" />
<glyph unicode="&#xe975;" glyph-name="Measure_Erase_Icon" d="M870.4 89.6v86.697h-220.442l-86.758-86.697h307.2zM849.336 614.205l-171.054 171.075c-28.068 28.058-73.62 28.083-101.714 0l-401.823-401.859c-28.088-28.093-28.088-73.626 0-101.74l171.044-171.028c14.085-14.080 32.486-21.048 50.898-21.048s36.813 6.968 50.847 20.982l401.807 401.828c28.078 28.124 28.078 73.687-0.005 101.791zM818.294 543.452l-401.756-401.756c-5.299-5.325-12.349-8.238-19.855-8.238-7.485 0-14.561 2.913-19.855 8.238l-20.091 20.091c8.684 3.502 16.84 8.791 23.864 15.785l401.761 401.792c7.055 7.050 12.349 15.212 15.836 23.89l20.096-20.091c5.289-5.315 8.233-12.365 8.233-19.85 0.005-7.537-2.944-14.561-8.233-19.86z" />
<glyph unicode="&#xe976;" glyph-name="Close_Window_Icon" d="M870.4 447.918c0-197.939-160.461-358.4-358.4-358.4s-358.4 160.461-358.4 358.4 160.461 358.4 358.4 358.4 358.4-160.456 358.4-358.4zM625.111 636.559l-113.106-113.091-113.126 113.091c-20.828 20.828-54.548 20.828-75.387 0-20.823-20.833-20.823-54.61 0-75.412l113.101-113.152-113.101-113.121c-20.823-20.797-20.823-54.6 0-75.428 20.833-20.782 54.554-20.782 75.387 0l113.126 113.152 113.106-113.152c20.838-20.782 54.641-20.782 75.392 0 20.828 20.828 20.828 54.661 0.082 75.459l-113.172 113.121 113.085 113.126c20.828 20.828 20.828 54.574 0 75.412-20.746 20.797-54.548 20.823-75.387-0.005z" />
<glyph unicode="&#xe977;" glyph-name="About_Icon" d="M613.56 577.454l-104.714-363.208c-5.791-20.777-8.678-34.401-8.678-40.868 0-3.753 1.531-7.235 4.598-10.465 3.062-3.241 6.292-4.859 9.697-4.859 5.791 0 11.581 2.56 17.372 7.66 15.319 12.6 33.72 35.42 55.168 68.454l17.372-10.214c-51.436-89.574-106.092-134.354-163.978-134.354-22.149 0-39.772 6.221-52.874 18.642-13.117 12.436-19.671 28.18-19.671 47.258 0 12.59 2.893 28.605 8.689 48.020l71.004 244.178c6.81 23.501 10.22 41.201 10.22 53.13 0 7.485-3.246 14.126-9.708 19.922-6.477 5.791-15.319 8.684-26.563 8.684-5.11 0-11.238-0.174-18.396-0.512l6.646 20.434 173.164 28.093h30.653zM579.2 806.4c21.12 0 38.912-7.332 53.391-21.97 14.469-14.638 21.709-32.353 21.709-53.12 0-20.782-7.332-38.492-21.97-53.13-14.638-14.648-32.358-21.97-53.13-21.97-20.429 0-37.97 7.322-52.608 21.97-14.643 14.638-21.965 32.348-21.965 53.13 0 20.767 7.229 38.482 21.704 53.12 14.469 14.638 32.097 21.97 52.869 21.97z" />
<glyph unicode="&#xe978;" glyph-name="Star_BeyondExpectations" d="M870.4 447.918c0-197.939-160.461-358.4-358.4-358.4s-358.4 160.461-358.4 358.4 160.461 358.4 358.4 358.4 358.4-160.456 358.4-358.4zM512 354.877l144.983-105.39-55.347 170.511 145.014 105.416h-179.267l-55.383 170.501-55.388-170.506h-179.272l145.024-105.416-55.388-170.511 145.024 105.395z" />
<glyph unicode="&#xe979;" glyph-name="Eye_empty" d="M511.938 642.062c-112.896 0-205.066-48.663-250.25-77.687-52.064-33.44-108.063-84.151-108.063-116.375s55.999-82.935 108.063-116.375c45.184-29.024 137.354-77.687 250.25-77.687v-0.062c112.896 0 205.254 48.726 250.438 77.75 52.064 33.472 108.062 84.151 108.062 116.375s-56.030 82.935-108.062 116.375c-45.184 29.024-137.542 77.687-250.438 77.687zM511.938 606.25c177.408 0 316.77-129.866 322.562-158.25-5.824-28.384-145.186-158.25-322.562-158.25s-316.646 129.866-322.438 158.25c5.824 28.384 145.030 158.25 322.438 158.25zM608.938 519.938c-0.064-0.014-0.124-0.049-0.187-0.062 0.13-0.188 0.304-0.385 0.437-0.562 0.135-0.181-0.113 0.302-0.25 0.625zM461.75 341.687c-0.581-1.243-1.113-2.61-1.063-3.375 0.034-0.016 0.091 0.016 0.125 0 0.201 0.006 0.604 1.607 1 3.375 0 0-0.062 0-0.062 0zM472.625 334.438c1.779-1.089 2.513-1.519 3.562-2.188-0.021 0.159 0.019 0.278 0 0.438-1.181 0.618-2.351 1.256-3.562 1.75z" />
<glyph unicode="&#xe97a;" glyph-name="Eye_new" d="M509.308 694.548c-165.802 0-316.16-85.735-427.108-224.991-9.053-11.409-9.053-27.348 0-38.757 110.949-139.424 261.306-225.159 427.108-225.159s316.16 85.735 427.108 224.991c9.053 11.409 9.053 27.348 0 38.757-110.949 139.424-261.306 225.159-427.108 225.159zM521.202 277.953c-110.061-6.543-200.95 79.192-194.027 183.382 5.681 85.903 79.351 155.531 170.24 160.9 110.061 6.543 200.95-79.192 194.027-183.382-5.858-85.735-79.528-155.363-170.24-160.9zM515.699 357.48c-59.291-3.523-108.286 42.616-104.381 98.654 3.018 46.307 42.782 83.722 91.777 86.742 59.291 3.523 108.286-42.616 104.381-98.654-3.195-46.475-42.959-83.889-91.777-86.742z" />
<glyph unicode="&#xe97b;" glyph-name="Layer_activenew" d="M870.4 447.904c0-197.952-160.448-358.4-358.4-358.4s-358.4 160.448-358.4 358.4 160.448 358.4 358.4 358.4 358.4-160.448 358.4-358.4zM512 705.696c-142.368 0-257.792-115.424-257.792-257.792s115.424-257.792 257.792-257.792 257.792 115.424 257.792 257.792-115.424 257.792-257.792 257.792zM651.145 445.83c0-79.843-65.697-144.569-146.738-144.569s-146.738 64.726-146.738 144.569c0 79.843 65.697 144.569 146.738 144.569s146.738-64.726 146.738-144.569z" />
<glyph unicode="&#xe97c;" glyph-name="Layer_Inactivenew" d="M870.4 447.904c0-197.952-160.448-358.4-358.4-358.4s-358.4 160.448-358.4 358.4 160.448 358.4 358.4 358.4 358.4-160.448 358.4-358.4zM512 705.696c-142.368 0-257.792-115.424-257.792-257.792s115.424-257.792 257.792-257.792 257.792 115.424 257.792 257.792-115.424 257.792-257.792 257.792z" />
</font>
</defs>
</svg>
